<?xml version="1.0" encoding="UTF-8" standalone="no"?>
<!DOCTYPE svg PUBLIC "-//W3C//DTD SVG 1.1//EN" "http://www.w3.org/Graphics/SVG/1.1/DTD/svg11.dtd">
<svg width="100%" height="100%" viewBox="0 0 480 200" version="1.1" xmlns="http://www.w3.org/2000/svg" xmlns:xlink="http://www.w3.org/1999/xlink" xml:space="preserve" xmlns:serif="http://www.serif.com/" style="fill-rule:evenodd;clip-rule:evenodd;stroke-linejoin:round;stroke-miterlimit:2;">
    <g id="Artboard_1">
        <g id="Path_2931" transform="matrix(1,0,0,1,-9367.358,-5524.853)">
            <path d="M9733.316,5622.578C9759.129,5625.009 9768.873,5625.207 9780.71,5625.091C9792.041,5624.717 9800.576,5626.338 9810.166,5616.191C9820.192,5605.798 9819.005,5600.391 9812.956,5602.076C9803.979,5604.761 9771.231,5615.916 9732.594,5621.297C9730.855,5621.525 9731.279,5622.451 9733.317,5622.575" style="fill:rgb(183,29,32);fill-rule:nonzero;"/>
        </g>
        <g id="Path_2932" transform="matrix(1,0,0,1,-9366.157,-5520.182)">
            <path d="M9723.37,5615.119C9749.789,5608.397 9815.883,5572.872 9825.686,5566.565C9830.532,5563.54 9835.848,5565.333 9827.312,5579.244C9821.52,5587.801 9817.503,5592.77 9802.012,5597.473C9791.325,5601.514 9751.756,5613.031 9724.035,5616.373C9721.982,5616.544 9721.335,5615.789 9723.371,5615.116" style="fill:rgb(255,190,11);fill-rule:nonzero;"/>
        </g>
        <g id="Path_2933" transform="matrix(1,0,0,1,-9366.229,-5513.55)">
            <path d="M9726.078,5606.618C9749.118,5598.541 9799.29,5572.134 9816.378,5561.639C9828.678,5554.147 9838.19,5548.621 9841.919,5539.239C9849.873,5517.793 9843.79,5509.07 9836.238,5515.759C9826.585,5525.135 9781.246,5572.711 9723.204,5606.159C9722.333,5606.666 9722.179,5607.819 9726.076,5606.62" style="fill:rgb(85,124,57);fill-rule:nonzero;"/>
        </g>
        <g id="Path_2934" transform="matrix(1,0,0,1,-9313.851,-5526.168)">
            <path d="M9313.851,5669.6L9319.598,5665.485L9319.598,5616.136L9313.851,5612.043L9358.228,5612.043L9358.228,5621.914L9350.828,5616.136L9327.828,5616.136L9327.828,5636.7L9344.273,5636.7L9350.832,5631.785L9350.832,5645.76L9344.273,5640.816L9327.828,5640.816L9327.828,5665.486L9351.677,5665.486L9359.884,5658.903L9359.884,5669.603L9313.851,5669.6Z" style="fill:rgb(183,29,32);fill-rule:nonzero;"/>
        </g>
        <g id="Path_2935" transform="matrix(1,0,0,1,-9320.858,-5527.377)">
            <path d="M9394.853,5665.047L9397.33,5666.693C9396.193,5668.984 9391.948,5672.001 9386.512,5672.01C9380.737,5672.01 9376.762,5668.29 9376.762,5663.4L9376.762,5632.992L9368.554,5632.992L9384.99,5621.473L9384.99,5629.69L9397.331,5629.69L9397.331,5632.99L9384.99,5632.99L9384.99,5667.5C9385.798,5668.193 9386.846,5668.542 9387.908,5668.472C9390.661,5668.626 9393.301,5667.322 9394.854,5665.044" style="fill:rgb(183,29,32);fill-rule:nonzero;"/>
        </g>
        <g id="Path_2936" transform="matrix(1,0,0,1,-9325.447,-5525.927)">
            <path d="M9404.365,5669.359L9410.129,5665.243L9410.129,5618.389L9404.365,5614.272L9418.345,5610.152L9418.345,5636.452L9423.034,5632.722C9427.329,5629.34 9432.627,5627.476 9438.093,5627.422C9447.304,5627.422 9450.407,5631.722 9450.407,5637.278L9450.407,5665.235L9456.175,5669.351L9442.2,5669.351L9442.2,5637.278C9442.2,5635.466 9440.641,5632.362 9435.63,5632.362C9431.25,5632.418 9427.021,5633.991 9423.669,5636.811L9418.351,5640.559L9418.351,5665.235L9424.109,5669.351L9404.365,5669.359Z" style="fill:rgb(183,29,32);fill-rule:nonzero;"/>
        </g>
        <g id="Path_2937" transform="matrix(1,0,0,1,-9336.322,-5528.465)">
            <path d="M9528.718,5651.348C9528.709,5642.739 9524.864,5633.248 9513.918,5633.248C9503.102,5633.256 9499.128,5642.748 9499.128,5651.348C9499.141,5659.931 9503.102,5669.427 9513.918,5669.427C9524.866,5669.427 9528.728,5659.927 9528.718,5651.348M9513.918,5629.968C9528.641,5629.942 9538.579,5640.258 9538.591,5651.348C9538.591,5662.4 9528.641,5672.705 9513.918,5672.721C9499.327,5672.721 9489.262,5662.401 9489.256,5651.348C9489.248,5640.258 9499.327,5629.972 9513.918,5629.968" style="fill:rgb(183,29,32);fill-rule:nonzero;"/>
        </g>
        <g id="Path_2938" transform="matrix(1,0,0,1,-9343.812,-5528.465)">
            <path d="M9561.7,5640.65L9561.7,5662.023C9564.351,5666.496 9569.313,5668.594 9574.867,5668.592C9585.286,5668.592 9588.013,5658.972 9588.006,5651.348C9588.006,5643.7 9585.286,5634.048 9574.867,5634.073C9569.313,5634.08 9564.335,5636.059 9561.7,5640.65M9547.709,5688.331L9553.476,5684.218L9553.476,5638.994L9547.709,5634.908L9561.7,5630.775L9561.7,5635.715C9565.524,5630.725 9573.236,5629.966 9578.15,5629.966C9590.227,5629.948 9597.875,5640.648 9597.875,5651.346C9597.875,5661.262 9590.228,5672.707 9578.15,5672.719C9573.236,5672.719 9565.982,5671.719 9561.7,5666.956L9561.7,5684.217L9566.629,5688.33L9547.709,5688.331Z" style="fill:rgb(183,29,32);fill-rule:nonzero;"/>
        </g>
        <g id="Path_2939" transform="matrix(1,0,0,1,-9354.807,-5528.465)">
            <path d="M9642.586,5661.2C9642.586,5666.372 9645.84,5667.783 9648.354,5667.783C9649.473,5667.783 9652.01,5666.696 9653.272,5666.137L9664.782,5661.2L9664.782,5650.51L9655.753,5650.51C9647.814,5650.524 9642.587,5654.621 9642.587,5661.2M9639.294,5642.3L9639.294,5633.255C9643.069,5631.155 9650.47,5629.974 9655.753,5629.974C9667.126,5629.974 9673.019,5633.485 9673.019,5639.83L9673.019,5667.788L9678.757,5671.904L9664.782,5671.904L9664.782,5665.314L9649.165,5671.904C9647.58,5672.452 9645.914,5672.731 9644.237,5672.728C9644.123,5672.732 9644.008,5672.734 9643.894,5672.734C9638.209,5672.734 9633.532,5668.056 9633.532,5662.372C9633.532,5662.261 9633.533,5662.151 9633.537,5662.041C9633.531,5654.004 9642.699,5647.249 9653.271,5647.235L9664.781,5647.235L9664.781,5639.835C9664.781,5636.019 9660.769,5633.26 9655.752,5633.26C9653.329,5633.115 9650.928,5633.814 9648.961,5635.236L9639.294,5642.3Z" style="fill:rgb(183,29,32);fill-rule:nonzero;"/>
        </g>
        <g id="Path_2940" transform="matrix(1,0,0,1,-9361.576,-5528.465)">
            <path d="M9720.074,5629.968C9731.607,5629.968 9734.057,5636.04 9734.057,5639.824L9734.057,5667.782L9739.801,5671.898L9725.83,5671.898L9725.83,5639.825C9725.83,5637.804 9724.23,5634.91 9717.621,5634.91C9713.132,5634.62 9708.701,5636.086 9705.27,5638.996L9700.333,5643.107L9700.333,5667.783L9706.103,5671.899L9686.376,5671.899L9692.121,5667.783L9692.121,5638.996L9686.376,5634.91L9700.333,5630.78L9700.333,5638.996L9704.463,5635.509C9711.236,5630.348 9717.051,5629.969 9720.072,5629.969" style="fill:rgb(183,29,32);fill-rule:nonzero;"/>
        </g>
        <g id="Path_2941" transform="matrix(1,0,0,1,-9333.3,-5528.584)">
            <path d="M9465.664,5672.016L9471.433,5667.9L9471.433,5639.114L9465.664,5635.028L9479.664,5630.896L9479.664,5667.896L9485.42,5672.012L9465.664,5672.016Z" style="fill:rgb(183,29,32);fill-rule:nonzero;"/>
        </g>
        <g id="Path_2942" transform="matrix(1,0,0,1,-9334.024,-5526.892)">
            <path d="M9471.322,5620.989C9471.322,5619.165 9473.372,5617.689 9475.857,5617.689C9478.342,5617.689 9480.383,5619.165 9480.383,5620.989C9480.383,5622.813 9478.346,5624.279 9475.857,5624.279C9473.368,5624.279 9471.322,5622.804 9471.322,5620.989" style="fill:rgb(183,29,32);fill-rule:nonzero;"/>
        </g>
        <g id="Path_2943" transform="matrix(1,0,0,1,-9351.544,-5528.584)">
            <path d="M9608.069,5672.016L9613.828,5667.9L9613.828,5639.114L9608.069,5635.028L9622.055,5630.896L9622.055,5667.896L9627.815,5672.012L9608.069,5672.016Z" style="fill:rgb(183,29,32);fill-rule:nonzero;"/>
        </g>
        <g id="Path_2944" transform="matrix(1,0,0,1,-9352.271,-5526.892)">
            <path d="M9613.753,5620.989C9613.753,5619.165 9615.761,5617.689 9618.265,5617.689C9620.769,5617.689 9622.785,5619.165 9622.785,5620.989C9622.785,5622.813 9620.757,5624.279 9618.265,5624.279C9615.773,5624.279 9613.753,5622.804 9613.753,5620.989" style="fill:rgb(183,29,32);fill-rule:nonzero;"/>
        </g>
        <g id="Path_2945" transform="matrix(1,0,0,1,-9338.816,-5537.956)">
            <path d="M9516.489,5726.153L9520.889,5729.548C9521.79,5729.966 9522.363,5730.881 9522.346,5731.874L9522.346,5735.52L9518.946,5737.939L9530.569,5737.939L9527.18,5735.52L9527.18,5731.644C9527.18,5729.713 9526.921,5728.274 9525.106,5726.918L9520.257,5723.031C9518.495,5721.778 9518.517,5721.61 9517.521,5720.931C9517.521,5720.931 9521.443,5721.153 9523.3,5721.1C9530.736,5721.225 9534.163,5719.43 9535.184,5717.256C9535.851,5715.634 9536.102,5713.87 9535.913,5712.126C9535.794,5709.733 9535.595,5709.433 9535.005,5708.311C9533.288,5705.175 9528.105,5704.045 9522.305,5704.045C9516.968,5704.045 9511.205,5705.845 9509.463,5709.875C9509.069,5710.744 9508.832,5711.675 9508.763,5712.627C9508.789,5715.401 9508.093,5719.564 9511.584,5722.261L9516.489,5726.153ZM9514.04,5712.214C9514.096,5708.148 9517.346,5706.035 9522.309,5706.004C9527.097,5705.95 9530.72,5707.042 9530.643,5711.849L9530.643,5713.595C9530.614,5716.195 9529.596,5718.336 9525.863,5718.683C9522.491,5719.072 9519.087,5719.092 9515.711,5718.743C9513.673,5718.343 9513.996,5714.943 9514.041,5713.777L9514.04,5712.214Z" style="fill:rgb(183,29,32);fill-rule:nonzero;"/>
        </g>
        <g id="Path_2946" transform="matrix(1,0,0,1,-9348.001,-5537.956)">
            <path d="M9597.369,5721.008L9597.369,5735.52L9593.969,5737.939L9605.589,5737.939L9602.222,5735.52L9602.222,5721.008L9610.914,5721.008L9610.914,5726.318L9619.133,5726.318L9615.747,5723.907L9615.747,5719.064L9602.222,5719.064L9602.222,5711.316C9602.222,5709.38 9601.242,5708.904 9599.783,5708.904L9597.367,5708.904L9597.367,5704.041L9589.132,5706.474L9592.512,5708.904L9592.512,5710.836L9597.367,5710.836L9597.367,5719.064L9583.824,5719.064L9583.824,5723.907L9580.412,5726.318L9588.641,5726.318L9588.641,5721.008L9597.369,5721.008Z" style="fill:rgb(183,29,32);fill-rule:nonzero;"/>
        </g>
        <g id="Path_2947" transform="matrix(1,0,0,1,-9353.896,-5537.956)">
            <path d="M9648.389,5713.595C9648.332,5716.195 9647.333,5718.336 9643.606,5718.685C9640.226,5719.072 9636.814,5719.093 9633.43,5718.746C9631.41,5718.346 9631.73,5714.941 9631.778,5713.776L9631.778,5712.214C9631.848,5708.148 9635.078,5706.035 9640.026,5706.004C9644.808,5705.95 9648.455,5707.042 9648.389,5711.849L9648.389,5713.595ZM9663.789,5721.008L9660.399,5718.571L9660.399,5713.742L9653.67,5713.742C9653.67,5713.242 9653.67,5712.706 9653.64,5712.123C9653.528,5709.73 9653.346,5709.43 9652.728,5708.308C9651.008,5705.172 9645.854,5704.042 9640.028,5704.042C9634.71,5704.042 9628.941,5705.842 9627.199,5709.872C9626.805,5710.743 9626.557,5711.673 9626.467,5712.624C9626.502,5715.4 9625.834,5719.561 9629.321,5722.258L9634.221,5726.158L9638.621,5729.553C9639.524,5729.966 9640.093,5730.887 9640.059,5731.879L9640.059,5735.525L9636.672,5737.944L9648.3,5737.944L9644.914,5735.525L9644.914,5731.649C9644.914,5729.718 9644.662,5728.279 9642.835,5726.923L9637.994,5723.036C9636.237,5721.783 9636.237,5721.615 9635.251,5720.936C9635.251,5720.936 9639.18,5721.158 9641.04,5721.105C9648.479,5721.23 9651.906,5719.435 9652.931,5717.261C9653.162,5716.755 9653.337,5716.226 9653.452,5715.682L9655.538,5715.682L9655.538,5721.016L9663.789,5721.008Z" style="fill:rgb(183,29,32);fill-rule:nonzero;"/>
        </g>
        <g id="Path_2948" transform="matrix(1,0,0,1,-9364.648,-5537.956)">
            <path d="M9721.007,5712.214C9721.076,5708.148 9724.32,5706.035 9729.26,5706.004C9734.06,5705.95 9737.671,5707.042 9737.615,5711.849L9737.615,5713.595C9737.6,5716.195 9736.561,5718.336 9732.836,5718.683C9729.464,5719.072 9726.059,5719.093 9722.682,5718.746C9720.654,5718.346 9720.972,5714.941 9721.007,5713.776L9721.007,5712.214ZM9724.49,5720.927C9724.49,5720.927 9728.414,5721.149 9730.271,5721.096C9737.719,5721.221 9741.151,5719.426 9742.153,5717.252C9742.811,5715.627 9743.059,5713.865 9742.877,5712.122C9742.755,5709.729 9742.594,5709.428 9741.97,5708.307C9740.27,5705.171 9735.083,5704.041 9729.26,5704.041C9723.942,5704.041 9718.169,5705.841 9716.448,5709.871C9716.051,5710.741 9715.802,5711.671 9715.709,5712.623C9715.751,5715.399 9715.065,5719.56 9718.556,5722.257L9729.242,5730.809L9713.742,5732.149L9713.742,5735.525L9710.349,5737.955L9721.954,5737.955L9718.594,5735.525L9718.594,5733.625L9736.018,5732.146L9736.018,5730.203L9724.49,5720.927Z" style="fill:rgb(183,29,32);fill-rule:nonzero;"/>
        </g>
        <g id="Path_2949" transform="matrix(1,0,0,1,-9343.228,-5537.956)">
            <path d="M9580.494,5737.939L9577.094,5735.52L9577.094,5731.161L9574.685,5731.161L9570.324,5734.078L9570.324,5724.237C9570.177,5718.543 9563.153,5718.123 9555.339,5719.097L9561.606,5710.835L9561.606,5708.9L9554.335,5708.9L9554.335,5704.037L9546.123,5706.47L9549.509,5708.9L9549.509,5710.832L9556.167,5710.832L9548.773,5720.538C9547.433,5722.171 9546.669,5724.202 9546.601,5726.314L9546.601,5735.514L9543.144,5737.933L9554.825,5737.933L9551.439,5735.514L9551.439,5726.314C9551.391,5725.11 9551.755,5723.925 9552.472,5722.957C9552.877,5722.417 9553.114,5722.057 9553.267,5721.84C9553.465,5721.6 9553.732,5721.428 9554.032,5721.347C9555.281,5721.02 9565.481,5719.636 9565.481,5724.619L9565.481,5735.026C9565.481,5736.974 9566.439,5737.936 9567.419,5737.936C9568.094,5737.958 9568.762,5737.791 9569.347,5737.455C9570.355,5736.873 9571.324,5736.226 9572.247,5735.517L9572.247,5737.936L9580.494,5737.939Z" style="fill:rgb(183,29,32);fill-rule:nonzero;"/>
        </g>
        <g id="Path_2950" transform="matrix(1,0,0,1,-9359.027,-5537.956)">
            <path d="M9683.846,5720.851C9678.41,5720.724 9676.762,5719.879 9676.762,5715.579C9676.762,5711.329 9681.795,5710.798 9684.491,5710.742C9691.091,5710.607 9692.281,5712.715 9692.211,5714.975C9692.177,5716.424 9692.211,5717.843 9688.983,5719.038C9688.364,5719.268 9685.921,5720.138 9683.846,5720.851M9696.989,5729.858C9696.989,5724.337 9693.023,5723.493 9689.701,5723.144C9690.141,5722.99 9691.301,5722.544 9691.722,5722.395C9696.087,5720.786 9697.172,5718.919 9697.277,5715.77L9697.277,5715.67L9699.205,5715.67L9699.205,5721.004L9707.433,5721.004L9704.059,5718.567L9704.059,5713.738L9697.031,5713.738C9696.322,5711.291 9693.859,5709.019 9686.821,5708.901L9686.821,5704.038L9678.591,5706.471L9681.984,5708.901C9677.004,5708.901 9671.825,5710.991 9671.616,5715.701C9671.423,5720.18 9674.711,5722.352 9679.149,5722.472L9674.183,5724.207C9671.583,5725.207 9669.9,5726.314 9669.9,5730.669L9669.9,5735.516L9666.484,5737.935L9678.109,5737.935L9674.721,5735.516L9674.721,5731.108C9674.721,5729.722 9674.46,5728.65 9676.653,5727.9C9676.653,5727.9 9684.592,5725.073 9684.963,5724.968C9688.839,5725.259 9692.143,5725.504 9692.143,5729.8L9692.143,5735.515L9688.759,5737.934L9700.387,5737.934L9696.992,5735.515L9696.989,5729.858Z" style="fill:rgb(183,29,32);fill-rule:nonzero;"/>
        </g>
    </g>
</svg>
