<?xml version="1.0" encoding="UTF-8" standalone="no"?>
<!DOCTYPE svg PUBLIC "-//W3C//DTD SVG 1.1//EN" "http://www.w3.org/Graphics/SVG/1.1/DTD/svg11.dtd">
<svg width="100%" height="100%" viewBox="0 0 382 118" version="1.1" xmlns="http://www.w3.org/2000/svg" xmlns:xlink="http://www.w3.org/1999/xlink" xml:space="preserve" xmlns:serif="http://www.serif.com/" style="fill-rule:evenodd;clip-rule:evenodd;stroke-linejoin:round;stroke-miterlimit:2;">
    <rect x="-0.23" y="114.9" width="254.79" height="2.31" style="fill:rgb(215,164,97);"/>
    <rect x="-0.23" y="99.89" width="254.79" height="2.31" style="fill:rgb(215,164,97);"/>
    <path d="M244.4,110.66C243.56,110.26 243.12,109.1 242.94,108.54C242.9,108.42 242.74,108.41 242.68,108.51C242.33,109.14 241.63,110.72 242.72,111.91L242.54,111.91C241.69,111.86 240.89,111.6 240.1,111.19C238.55,109.66 238.17,108.3 238.72,107.28C239.12,106.56 239.82,106.08 240.51,106.08C240.37,106.74 240.9,107.43 241.9,107.38C242.9,107.33 243.35,106.92 243.27,106C243.18,105.04 242.07,104.54 240.8,104.54C239.53,104.54 238.1,105.24 237.45,106.43C236.96,107.33 236.84,108.23 236.97,109.04C236.83,108.93 236.69,108.81 236.54,108.7C234.8,107.32 232.84,105.76 230.38,104.75C228.59,104.02 225.84,103.18 222.68,104.4C219.52,105.62 222.68,104.4 222.68,104.4C219.34,105.69 217,106.86 215.67,103.8C215.63,103.71 215.53,103.67 215.45,103.71C215.09,103.85 214.84,104.04 214.6,104.43C213.38,103.99 212.09,104.45 211.82,104.56C211.79,104.57 211.77,104.61 211.79,104.64C211.9,104.89 212.39,105.92 213.38,106.47C212.98,106.88 212.81,107.56 212.82,108.15C212.82,108.26 212.94,108.33 213.04,108.27C215.4,106.96 217.37,106.83 218.09,106.83C218.44,106.83 218.77,106.81 219.11,106.77C217.93,107.78 216.12,109.02 214.13,110.03C212.03,110.88 210.37,111.27 209.09,110.67C208.25,110.27 207.81,109.11 207.63,108.55C207.59,108.43 207.43,108.42 207.37,108.52C207.02,109.15 206.32,110.73 207.41,111.92L207.23,111.92C206.38,111.87 205.58,111.61 204.79,111.2C203.24,109.67 202.86,108.31 203.41,107.29C203.81,106.57 204.51,106.09 205.21,106.09C205.07,106.75 205.6,107.44 206.6,107.39C207.6,107.34 208.06,106.93 207.97,106.01C207.88,105.05 206.77,104.55 205.5,104.55C204.23,104.55 202.8,105.25 202.15,106.44C201.66,107.34 201.54,108.24 201.67,109.05C201.53,108.94 201.38,108.82 201.24,108.71C199.5,107.33 197.53,105.77 195.08,104.76C193.29,104.03 190.54,103.19 187.38,104.41C184.22,105.63 187.38,104.41 187.38,104.41C184.04,105.7 181.7,106.87 180.37,103.81C180.33,103.72 180.23,103.68 180.15,103.72C179.79,103.86 179.54,104.05 179.3,104.44C178.08,104 176.79,104.46 176.52,104.57C176.49,104.58 176.48,104.62 176.49,104.65C176.6,104.9 177.09,105.93 178.08,106.48C177.68,106.89 177.51,107.57 177.52,108.16C177.52,108.27 177.64,108.34 177.74,108.28C180.1,106.97 182.07,106.84 182.79,106.84C183.14,106.84 183.47,106.82 183.81,106.78C182.63,107.79 180.82,109.03 178.83,110.04C176.73,110.89 175.07,111.28 173.79,110.68C172.95,110.28 172.51,109.12 172.33,108.56C172.3,108.44 172.14,108.43 172.08,108.53C171.73,109.16 171.03,110.74 172.12,111.93L171.94,111.93C171.09,111.88 170.29,111.62 169.5,111.21C167.95,109.68 167.57,108.32 168.12,107.3C168.51,106.58 169.22,106.1 169.92,106.1C169.78,106.76 170.31,107.45 171.31,107.4C172.31,107.35 172.76,106.94 172.68,106.02C172.59,105.06 171.48,104.56 170.21,104.56C168.94,104.56 167.51,105.26 166.86,106.45C166.37,107.35 166.25,108.25 166.38,109.06C166.24,108.95 166.09,108.83 165.95,108.72C164.21,107.34 162.25,105.78 159.79,104.77C158,104.04 155.25,103.2 152.09,104.42C148.93,105.64 152.09,104.42 152.09,104.42C148.75,105.71 146.41,106.88 145.08,103.82C145.04,103.73 144.94,103.69 144.85,103.73C144.49,103.87 144.24,104.06 144,104.45C142.78,104.01 141.49,104.47 141.22,104.58C141.19,104.59 141.18,104.63 141.19,104.66C141.3,104.91 141.79,105.94 142.78,106.49C142.38,106.9 142.21,107.58 142.22,108.17C142.22,108.28 142.34,108.35 142.44,108.29C144.8,106.98 146.77,106.85 147.49,106.85C147.84,106.85 148.17,106.83 148.51,106.79C147.33,107.8 145.52,109.04 143.53,110.05C141.43,110.9 139.77,111.29 138.49,110.69C137.65,110.29 137.21,109.13 137.03,108.57C137,108.45 136.84,108.44 136.78,108.54C136.43,109.17 135.73,110.75 136.82,111.94L136.64,111.94C135.79,111.89 134.99,111.63 134.2,111.22C132.65,109.69 132.27,108.33 132.82,107.31C133.22,106.59 133.92,106.11 134.62,106.11C134.47,106.77 135,107.46 136,107.41C137,107.36 137.46,106.95 137.37,106.03C137.28,105.07 136.17,104.57 134.9,104.57C133.63,104.57 132.2,105.27 131.55,106.46C131.06,107.36 130.94,108.26 131.07,109.07C130.93,108.96 130.78,108.84 130.64,108.73C128.9,107.35 126.94,105.79 124.48,104.78C122.69,104.05 119.94,103.21 116.78,104.43C113.62,105.65 116.78,104.43 116.78,104.43C113.44,105.72 111.1,106.89 109.77,103.83C109.73,103.74 109.63,103.7 109.54,103.74C109.18,103.88 108.93,104.07 108.69,104.46C107.47,104.02 106.18,104.48 105.91,104.59C105.88,104.6 105.87,104.64 105.88,104.67C105.99,104.92 106.48,105.95 107.47,106.5C107.07,106.91 106.9,107.59 106.91,108.18C106.91,108.29 107.03,108.36 107.13,108.3C109.49,106.99 111.46,106.86 112.18,106.86C112.53,106.86 112.86,106.84 113.2,106.8C112.02,107.81 110.21,109.05 108.22,110.06C106.12,110.91 104.46,111.3 103.18,110.7C102.34,110.3 101.89,109.14 101.72,108.58C101.68,108.46 101.52,108.45 101.46,108.55C101.11,109.18 100.42,110.76 101.5,111.95L101.32,111.95C100.47,111.9 99.67,111.64 98.88,111.23C97.33,109.7 96.95,108.34 97.5,107.32C97.9,106.6 98.6,106.12 99.3,106.12C99.16,106.78 99.69,107.47 100.68,107.42C101.68,107.37 102.14,106.96 102.05,106.04C101.96,105.08 100.85,104.58 99.58,104.58C98.31,104.58 96.88,105.28 96.23,106.47C95.74,107.37 95.62,108.27 95.75,109.08C95.61,108.97 95.46,108.85 95.32,108.74C93.58,107.36 91.62,105.8 89.16,104.79C87.37,104.06 84.62,103.22 81.46,104.44C78.12,105.73 75.78,106.9 74.45,103.84C74.41,103.75 74.31,103.71 74.23,103.75C73.87,103.89 73.62,104.08 73.39,104.47C72.17,104.03 70.88,104.49 70.61,104.6C70.58,104.61 70.57,104.65 70.58,104.68C70.69,104.93 71.18,105.96 72.17,106.51C71.77,106.92 71.6,107.6 71.61,108.19C71.61,108.3 71.73,108.37 71.83,108.31C74.19,107 76.16,106.87 76.88,106.87C77.23,106.87 77.56,106.85 77.9,106.81C76.72,107.82 74.91,109.06 72.92,110.07C70.82,110.92 69.16,111.31 67.88,110.71C67.04,110.31 66.6,109.15 66.42,108.59C66.38,108.47 66.22,108.46 66.16,108.56C65.81,109.19 65.11,110.77 66.2,111.96L66.02,111.96C65.17,111.91 64.37,111.65 63.59,111.24C62.04,109.71 61.65,108.35 62.21,107.33C62.61,106.61 63.31,106.13 64.01,106.13C63.87,106.79 64.4,107.48 65.4,107.43C66.4,107.38 66.85,106.97 66.77,106.05C66.68,105.09 65.57,104.59 64.3,104.59C63.03,104.59 61.6,105.29 60.95,106.48C60.46,107.38 60.34,108.28 60.47,109.09C60.33,108.98 60.19,108.86 60.04,108.75C58.3,107.37 56.34,105.81 53.88,104.8C52.09,104.07 49.34,103.23 46.18,104.45C43.02,105.67 46.18,104.45 46.18,104.45C42.84,105.74 40.5,106.91 39.17,103.85C39.13,103.76 39.03,103.72 38.94,103.76C38.58,103.9 38.33,104.09 38.09,104.48C36.87,104.04 35.58,104.5 35.31,104.61C35.28,104.62 35.27,104.66 35.28,104.69C35.39,104.94 35.88,105.97 36.87,106.52C36.47,106.93 36.3,107.61 36.31,108.2C36.31,108.31 36.43,108.38 36.53,108.32C38.89,107.01 40.86,106.88 41.58,106.88C41.93,106.88 42.26,106.86 42.6,106.82C41.42,107.83 39.61,109.07 37.62,110.08C35.52,110.93 33.86,111.32 32.58,110.72C31.74,110.32 31.3,109.16 31.12,108.6C31.08,108.48 30.93,108.47 30.87,108.57C30.51,109.2 29.82,110.78 30.91,111.97L30.73,111.97C29.88,111.92 29.08,111.66 28.29,111.25C26.74,109.72 26.36,108.36 26.91,107.34C27.31,106.62 28.01,106.14 28.71,106.14C28.57,106.8 29.1,107.49 30.1,107.44C31.1,107.39 31.55,106.98 31.47,106.06C31.38,105.1 30.27,104.6 29,104.6C27.73,104.6 26.3,105.3 25.65,106.49C25.16,107.39 25.04,108.29 25.17,109.1C25.03,108.99 24.88,108.87 24.74,108.76C23,107.38 21.04,105.82 18.58,104.81C16.79,104.08 14.04,103.24 10.88,104.46C7.54,105.75 5.2,106.92 3.87,103.86C3.83,103.77 3.73,103.73 3.65,103.77C3.29,103.91 3.04,104.1 2.8,104.49C1.58,104.05 0.29,104.51 0.02,104.62C-0.01,104.63 -0.02,104.67 -0.01,104.7C0.1,104.95 0.59,105.98 1.58,106.53C1.18,106.94 1.01,107.62 1.02,108.21C1.02,108.32 1.14,108.39 1.24,108.33C3.6,107.02 5.57,106.89 6.29,106.89C6.93,106.89 7.5,106.83 8.13,106.66C7.84,107.14 7.65,107.67 7.57,108.23C7.37,109.57 7.84,110.9 8.83,111.62C10.18,112.61 11.25,112.5 12,112.29C12.75,112.08 13.38,111.56 13.36,110.78C13.34,110.1 12.86,109.6 12.05,109.74C11.49,109.84 10.88,110.27 10.87,111.21C8.97,110.92 9.03,109.2 9.15,108.39C9.32,107.24 10.05,106.32 11.41,105.8C12.31,105.45 13.18,105.3 13.99,105.28C12.46,106.37 13.01,107.98 13.34,108.68C13.39,108.78 13.55,108.76 13.56,108.65C13.65,108.12 13.92,107.14 14.8,106.7C15.97,106.11 17.51,106.03 19.46,106.81C21.09,107.69 22.49,108.8 23.86,109.88C24,109.99 24.15,110.11 24.29,110.22C23.75,110.13 23.26,110.13 22.7,110.13C21.98,110.13 19.94,109.95 18.31,108.99C18.21,108.93 18.11,109 18.09,109.11C17.99,109.73 17.89,110.32 18.2,110.69C17.21,111.24 16.54,112.27 16.44,112.52C16.43,112.55 16.44,112.59 16.47,112.6C16.75,112.71 17.88,113 19.1,112.56C19.33,112.95 19.91,113.31 20.28,113.45C20.37,113.48 20.46,113.44 20.5,113.35C21.93,110.44 24.58,111.23 28.06,112.72C28.18,112.77 28.3,112.83 28.42,112.87C29.13,113.16 29.87,113.34 30.65,113.39C30.81,113.39 30.97,113.4 31.14,113.4C35.16,113.4 40,110.69 42.85,108.48C42.75,109.73 43.21,110.93 44.14,111.61C45.49,112.6 46.56,112.49 47.31,112.28C48.06,112.07 48.69,111.55 48.67,110.77C48.65,110.09 48.17,109.59 47.36,109.73C46.8,109.83 46.19,110.26 46.18,111.2C44.28,110.91 44.34,109.19 44.46,108.38C44.63,107.23 45.36,106.31 46.72,105.79C47.62,105.44 48.49,105.29 49.3,105.27C47.77,106.36 48.32,107.97 48.66,108.67C48.71,108.77 48.86,108.75 48.88,108.64C48.96,108.11 49.24,107.13 50.12,106.69C51.29,106.1 52.83,106.02 54.78,106.8C56.41,107.68 57.81,108.79 59.18,109.87C59.32,109.98 59.47,110.1 59.61,110.21C59.07,110.12 58.58,110.12 58.02,110.12C57.3,110.12 55.26,109.94 53.63,108.98C53.53,108.92 53.43,108.99 53.41,109.1C53.31,109.72 53.21,110.31 53.52,110.68C52.53,111.23 51.86,112.26 51.76,112.51C51.75,112.54 51.76,112.58 51.79,112.59C52.07,112.7 53.2,112.99 54.42,112.55C54.65,112.94 55.23,113.3 55.6,113.44C55.69,113.47 55.78,113.43 55.82,113.34C57.25,110.43 59.9,111.22 63.38,112.71C63.5,112.76 63.62,112.82 63.74,112.86C64.45,113.15 65.19,113.33 65.97,113.38C66.13,113.38 66.29,113.39 66.46,113.39C70.49,113.39 75.32,110.68 78.17,108.47C78.07,109.72 78.53,110.92 79.46,111.6C80.81,112.59 81.88,112.48 82.63,112.27C83.38,112.06 84.01,111.54 83.99,110.76C83.97,110.08 83.49,109.58 82.68,109.72C82.12,109.82 81.51,110.25 81.5,111.19C79.6,110.9 79.66,109.18 79.78,108.37C79.95,107.22 80.68,106.3 82.04,105.78C82.94,105.43 83.81,105.28 84.62,105.26C83.09,106.35 83.64,107.96 83.98,108.66C84.03,108.76 84.19,108.74 84.2,108.63C84.29,108.1 84.56,107.12 85.44,106.68C86.61,106.09 88.15,106.01 90.1,106.79C91.73,107.67 93.13,108.78 94.5,109.86C94.64,109.97 94.79,110.09 94.93,110.2C94.39,110.11 93.9,110.11 93.34,110.11C92.62,110.11 90.58,109.93 88.95,108.97C88.85,108.91 88.75,108.98 88.73,109.09C88.63,109.71 88.53,110.3 88.84,110.67C87.85,111.22 87.18,112.25 87.08,112.5C87.07,112.53 87.08,112.57 87.11,112.58C87.39,112.69 88.52,112.98 89.74,112.54C89.97,112.93 90.55,113.29 90.91,113.43C91,113.46 91.09,113.42 91.13,113.33C92.56,110.42 95.21,111.21 98.69,112.7C98.81,112.75 98.93,112.81 99.05,112.85C99.76,113.14 100.5,113.32 101.28,113.37C101.44,113.37 101.6,113.38 101.77,113.38C105.79,113.38 110.63,110.67 113.48,108.46C113.38,109.71 113.84,110.91 114.77,111.59C116.12,112.58 117.19,112.47 117.94,112.26C118.69,112.05 119.32,111.53 119.3,110.75C119.28,110.07 118.8,109.57 117.99,109.71C117.43,109.81 116.82,110.24 116.81,111.18C114.91,110.89 114.97,109.17 115.09,108.36C115.26,107.21 115.99,106.29 117.35,105.77C118.25,105.42 119.12,105.27 119.93,105.25C118.41,106.34 118.95,107.95 119.29,108.65C119.34,108.75 119.49,108.73 119.51,108.62C119.59,108.09 119.87,107.11 120.75,106.67C121.92,106.08 123.46,106 125.41,106.78C127.04,107.66 128.44,108.77 129.81,109.85C129.95,109.96 130.1,110.08 130.24,110.19C129.7,110.1 129.21,110.1 128.65,110.1C127.93,110.1 125.89,109.92 124.26,108.96C124.16,108.9 124.06,108.97 124.04,109.08C123.94,109.7 123.84,110.29 124.15,110.66C123.16,111.21 122.49,112.24 122.39,112.49C122.38,112.52 122.39,112.56 122.42,112.57C122.7,112.68 123.83,112.97 125.05,112.53C125.28,112.92 125.86,113.28 126.22,113.42C126.31,113.45 126.4,113.41 126.44,113.32C127.87,110.41 130.52,111.2 134,112.69C134.12,112.74 134.24,112.8 134.36,112.84C135.07,113.13 135.81,113.31 136.6,113.36C136.76,113.36 136.92,113.37 137.09,113.37C141.11,113.37 145.95,110.66 148.8,108.45C148.7,109.7 149.16,110.9 150.09,111.58C151.44,112.57 152.51,112.46 153.26,112.25C154.01,112.04 154.64,111.52 154.62,110.74C154.6,110.06 154.12,109.56 153.31,109.7C152.75,109.8 152.14,110.23 152.13,111.17C150.23,110.88 150.29,109.16 150.41,108.35C150.58,107.2 151.31,106.28 152.67,105.76C153.57,105.41 154.44,105.26 155.25,105.24C153.72,106.33 154.27,107.94 154.61,108.64C154.66,108.74 154.82,108.72 154.83,108.61C154.92,108.08 155.19,107.1 156.07,106.66C157.24,106.07 158.78,105.99 160.73,106.77C162.36,107.65 163.76,108.76 165.13,109.84C165.27,109.95 165.42,110.07 165.56,110.18C165.02,110.09 164.53,110.09 163.97,110.09C163.24,110.09 161.21,109.91 159.58,108.95C159.48,108.89 159.38,108.96 159.36,109.07C159.26,109.69 159.16,110.28 159.47,110.65C158.48,111.2 157.81,112.23 157.71,112.48C157.7,112.51 157.71,112.55 157.74,112.56C158.02,112.67 159.15,112.96 160.37,112.52C160.6,112.91 161.18,113.27 161.54,113.41C161.63,113.44 161.72,113.4 161.76,113.31C163.19,110.4 165.84,111.19 169.32,112.68C169.44,112.73 169.56,112.79 169.68,112.83C170.39,113.12 171.13,113.3 171.91,113.35C172.07,113.35 172.23,113.36 172.4,113.36C176.42,113.36 181.26,110.65 184.11,108.44C184.01,109.69 184.47,110.89 185.4,111.57C186.75,112.56 187.82,112.45 188.57,112.24C189.32,112.03 189.95,111.51 189.93,110.73C189.91,110.05 189.43,109.55 188.62,109.69C188.06,109.79 187.45,110.22 187.44,111.16C185.54,110.87 185.6,109.15 185.72,108.34C185.89,107.19 186.61,106.27 187.98,105.75C188.88,105.4 189.75,105.25 190.56,105.23C189.03,106.32 189.58,107.93 189.92,108.63C189.97,108.73 190.13,108.71 190.14,108.6C190.23,108.07 190.5,107.09 191.38,106.65C192.55,106.06 194.09,105.98 196.04,106.76C197.67,107.64 199.07,108.75 200.44,109.83C200.58,109.94 200.73,110.06 200.87,110.17C200.33,110.08 199.84,110.08 199.28,110.08C198.56,110.08 196.52,109.9 194.89,108.94C194.79,108.88 194.69,108.95 194.67,109.06C194.57,109.68 194.47,110.27 194.78,110.64C193.79,111.19 193.12,112.22 193.02,112.47C193.01,112.5 193.02,112.54 193.05,112.55C193.33,112.66 194.46,112.95 195.68,112.51C195.91,112.9 196.49,113.26 196.86,113.4C196.95,113.43 197.04,113.39 197.08,113.3C198.51,110.39 201.16,111.18 204.64,112.67C204.76,112.72 204.88,112.78 205,112.82C205.71,113.11 206.45,113.29 207.23,113.34C207.39,113.34 207.55,113.35 207.72,113.35C211.74,113.35 216.58,110.64 219.43,108.43C219.33,109.68 219.79,110.88 220.72,111.56C222.07,112.55 223.14,112.44 223.89,112.23C224.64,112.02 225.27,111.5 225.25,110.72C225.23,110.04 224.75,109.54 223.94,109.68C223.38,109.78 222.77,110.21 222.76,111.15C220.86,110.86 220.92,109.14 221.04,108.33C221.21,107.18 221.94,106.26 223.3,105.74C224.2,105.39 225.07,105.24 225.88,105.22C224.35,106.31 224.9,107.92 225.24,108.62C225.29,108.72 225.44,108.7 225.46,108.59C225.54,108.06 225.82,107.08 226.7,106.64C227.87,106.05 229.41,105.97 231.36,106.75C232.99,107.63 234.39,108.74 235.76,109.82C235.9,109.93 236.05,110.05 236.19,110.16C235.65,110.07 235.16,110.07 234.6,110.07C233.88,110.07 231.84,109.89 230.21,108.93C230.11,108.87 230.01,108.94 229.99,109.05C229.89,109.67 229.79,110.26 230.1,110.63C229.11,111.18 228.44,112.21 228.34,112.46C228.33,112.49 228.34,112.53 228.37,112.54C228.65,112.65 229.78,112.94 231,112.5C231.23,112.89 231.81,113.25 232.18,113.39C232.27,113.42 232.36,113.38 232.4,113.29C233.83,110.38 236.48,111.17 239.96,112.66C240.08,112.71 240.2,112.77 240.32,112.81C241.03,113.1 241.77,113.28 242.55,113.33C242.71,113.33 242.87,113.34 243.04,113.34C247.02,113.34 251.79,110.69 254.65,108.49L254.65,106.75C253.47,107.76 251.53,109 249.53,110.01C247.43,110.86 245.77,111.25 244.49,110.65" style="fill:rgb(215,164,97);"/>
    <rect x="-0.23" y="15.01" width="254.79" height="2.31" style="fill:rgb(215,164,97);"/>
    <rect x="-0.23" y="0" width="254.79" height="2.31" style="fill:rgb(215,164,97);"/>
    <path d="M244.4,10.77C243.56,10.37 243.12,9.21 242.94,8.65C242.9,8.53 242.74,8.51 242.68,8.62C242.33,9.25 241.63,10.83 242.72,12.02L242.54,12.02C241.69,11.97 240.89,11.71 240.1,11.3C238.55,9.77 238.17,8.41 238.72,7.39C239.12,6.67 239.82,6.19 240.51,6.19C240.37,6.85 240.9,7.54 241.9,7.49C242.9,7.44 243.35,7.03 243.27,6.11C243.18,5.15 242.07,4.65 240.8,4.65C239.53,4.65 238.1,5.35 237.45,6.54C236.96,7.44 236.84,8.34 236.97,9.15C236.83,9.04 236.69,8.92 236.54,8.81C234.8,7.43 232.84,5.87 230.38,4.86C228.59,4.13 225.84,3.29 222.68,4.51C219.52,5.73 222.68,4.51 222.68,4.51C219.34,5.8 217,6.97 215.67,3.91C215.63,3.82 215.53,3.78 215.45,3.81C215.09,3.95 214.84,4.14 214.6,4.53C213.38,4.09 212.09,4.55 211.82,4.66C211.79,4.67 211.77,4.71 211.79,4.74C211.9,4.99 212.39,6.02 213.38,6.57C212.98,6.98 212.81,7.66 212.82,8.25C212.82,8.36 212.94,8.43 213.04,8.37C215.4,7.06 217.37,6.93 218.09,6.93C218.44,6.93 218.77,6.91 219.11,6.87C217.93,7.88 216.12,9.12 214.13,10.13C212.03,10.98 210.37,11.37 209.09,10.77C208.25,10.37 207.81,9.21 207.63,8.65C207.59,8.53 207.43,8.51 207.37,8.62C207.02,9.25 206.32,10.83 207.41,12.02L207.23,12.02C206.38,11.97 205.58,11.71 204.79,11.3C203.24,9.77 202.86,8.41 203.41,7.39C203.81,6.67 204.51,6.19 205.21,6.19C205.07,6.85 205.6,7.54 206.6,7.49C207.6,7.44 208.06,7.03 207.97,6.11C207.88,5.15 206.77,4.65 205.5,4.65C204.23,4.65 202.8,5.35 202.15,6.54C201.66,7.44 201.54,8.34 201.67,9.15C201.53,9.04 201.38,8.92 201.24,8.81C199.5,7.43 197.53,5.87 195.08,4.86C193.29,4.13 190.54,3.29 187.38,4.51C184.22,5.73 187.38,4.51 187.38,4.51C184.04,5.8 181.7,6.97 180.37,3.91C180.33,3.82 180.23,3.78 180.15,3.81C179.79,3.95 179.54,4.14 179.3,4.53C178.08,4.09 176.79,4.55 176.52,4.66C176.49,4.67 176.48,4.71 176.49,4.74C176.6,4.99 177.09,6.02 178.08,6.57C177.68,6.98 177.51,7.66 177.52,8.25C177.52,8.36 177.64,8.43 177.74,8.37C180.1,7.06 182.07,6.93 182.79,6.93C183.14,6.93 183.47,6.91 183.81,6.87C182.63,7.88 180.82,9.12 178.83,10.13C176.73,10.98 175.07,11.37 173.79,10.77C172.95,10.37 172.51,9.21 172.33,8.65C172.3,8.53 172.14,8.51 172.08,8.62C171.73,9.25 171.03,10.83 172.12,12.02L171.94,12.02C171.09,11.97 170.29,11.71 169.5,11.3C167.95,9.77 167.57,8.41 168.12,7.39C168.51,6.67 169.22,6.19 169.92,6.19C169.78,6.85 170.31,7.54 171.31,7.49C172.31,7.44 172.76,7.03 172.68,6.11C172.59,5.15 171.48,4.65 170.21,4.65C168.94,4.65 167.51,5.35 166.86,6.54C166.37,7.44 166.25,8.34 166.38,9.15C166.24,9.04 166.09,8.92 165.95,8.81C164.21,7.43 162.25,5.87 159.79,4.86C158,4.13 155.25,3.29 152.09,4.51C148.93,5.73 152.09,4.51 152.09,4.51C148.75,5.8 146.41,6.97 145.08,3.91C145.04,3.82 144.94,3.78 144.85,3.81C144.49,3.95 144.24,4.14 144,4.53C142.78,4.09 141.49,4.55 141.22,4.66C141.19,4.67 141.18,4.71 141.19,4.74C141.3,4.99 141.79,6.02 142.78,6.57C142.38,6.98 142.21,7.66 142.22,8.25C142.22,8.36 142.34,8.43 142.44,8.37C144.8,7.06 146.77,6.93 147.49,6.93C147.84,6.93 148.17,6.91 148.51,6.87C147.33,7.88 145.52,9.12 143.53,10.13C141.43,10.98 139.77,11.37 138.49,10.77C137.65,10.37 137.21,9.21 137.03,8.65C137,8.53 136.84,8.51 136.78,8.62C136.43,9.25 135.73,10.83 136.82,12.02L136.64,12.02C135.79,11.97 134.99,11.71 134.2,11.3C132.65,9.77 132.27,8.41 132.82,7.39C133.22,6.67 133.92,6.19 134.62,6.19C134.47,6.85 135,7.54 136,7.49C137,7.44 137.46,7.03 137.37,6.11C137.28,5.15 136.17,4.65 134.9,4.65C133.63,4.65 132.2,5.35 131.55,6.54C131.06,7.44 130.94,8.34 131.07,9.15C130.93,9.04 130.78,8.92 130.64,8.81C128.9,7.43 126.94,5.87 124.48,4.86C122.69,4.13 119.94,3.29 116.78,4.51C113.62,5.73 116.78,4.51 116.78,4.51C113.44,5.8 111.1,6.97 109.77,3.91C109.73,3.82 109.63,3.78 109.54,3.81C109.18,3.95 108.93,4.14 108.69,4.53C107.47,4.09 106.18,4.55 105.91,4.66C105.88,4.67 105.87,4.71 105.88,4.74C105.99,4.99 106.48,6.02 107.47,6.57C107.07,6.98 106.9,7.66 106.91,8.25C106.91,8.36 107.03,8.43 107.13,8.37C109.49,7.06 111.46,6.93 112.18,6.93C112.53,6.93 112.86,6.91 113.2,6.87C112.02,7.88 110.21,9.12 108.22,10.13C106.12,10.98 104.46,11.37 103.18,10.77C102.34,10.37 101.89,9.21 101.72,8.65C101.68,8.53 101.52,8.51 101.46,8.62C101.11,9.25 100.42,10.83 101.5,12.02L101.32,12.02C100.47,11.97 99.67,11.71 98.88,11.3C97.33,9.77 96.95,8.41 97.5,7.39C97.9,6.67 98.6,6.19 99.3,6.19C99.16,6.85 99.69,7.54 100.68,7.49C101.68,7.44 102.14,7.03 102.05,6.11C101.96,5.15 100.85,4.65 99.58,4.65C98.31,4.65 96.88,5.35 96.23,6.54C95.74,7.44 95.62,8.34 95.75,9.15C95.61,9.04 95.46,8.92 95.32,8.81C93.58,7.43 91.62,5.87 89.16,4.86C87.37,4.13 84.62,3.29 81.46,4.51C78.12,5.8 75.78,6.97 74.45,3.91C74.41,3.82 74.31,3.78 74.23,3.81C73.87,3.95 73.62,4.14 73.39,4.53C72.17,4.09 70.88,4.55 70.61,4.66C70.58,4.67 70.57,4.71 70.58,4.74C70.69,4.99 71.18,6.02 72.17,6.57C71.77,6.98 71.6,7.66 71.61,8.25C71.61,8.36 71.73,8.43 71.83,8.37C74.19,7.06 76.16,6.93 76.88,6.93C77.23,6.93 77.56,6.91 77.9,6.87C76.72,7.88 74.91,9.12 72.92,10.13C70.82,10.98 69.16,11.37 67.88,10.77C67.04,10.37 66.6,9.21 66.42,8.65C66.38,8.53 66.22,8.51 66.16,8.62C65.81,9.25 65.11,10.83 66.2,12.02L66.02,12.02C65.17,11.97 64.37,11.71 63.59,11.3C62.04,9.77 61.65,8.41 62.21,7.39C62.61,6.67 63.31,6.19 64.01,6.19C63.87,6.85 64.4,7.54 65.4,7.49C66.4,7.44 66.85,7.03 66.77,6.11C66.68,5.15 65.57,4.65 64.3,4.65C63.03,4.65 61.6,5.35 60.95,6.54C60.46,7.44 60.34,8.34 60.47,9.15C60.33,9.04 60.19,8.92 60.04,8.81C58.3,7.43 56.34,5.87 53.88,4.86C52.09,4.13 49.34,3.29 46.18,4.51C43.02,5.73 46.18,4.51 46.18,4.51C42.84,5.8 40.5,6.97 39.17,3.91C39.13,3.82 39.03,3.78 38.94,3.81C38.58,3.95 38.33,4.14 38.09,4.53C36.87,4.09 35.58,4.55 35.31,4.66C35.28,4.67 35.27,4.71 35.28,4.74C35.39,4.99 35.88,6.02 36.87,6.57C36.47,6.98 36.3,7.66 36.31,8.25C36.31,8.36 36.43,8.43 36.53,8.37C38.89,7.06 40.86,6.93 41.58,6.93C41.93,6.93 42.26,6.91 42.6,6.87C41.42,7.88 39.61,9.12 37.62,10.13C35.52,10.98 33.86,11.37 32.58,10.77C31.74,10.37 31.3,9.21 31.12,8.65C31.08,8.53 30.93,8.51 30.87,8.62C30.51,9.25 29.82,10.83 30.91,12.02L30.73,12.02C29.88,11.97 29.08,11.71 28.29,11.3C26.74,9.77 26.36,8.41 26.91,7.39C27.31,6.67 28.01,6.19 28.71,6.19C28.57,6.85 29.1,7.54 30.1,7.49C31.1,7.44 31.55,7.03 31.47,6.11C31.38,5.15 30.27,4.65 29,4.65C27.73,4.65 26.3,5.35 25.65,6.54C25.16,7.44 25.04,8.34 25.17,9.15C25.03,9.04 24.88,8.92 24.74,8.81C23,7.43 21.04,5.87 18.58,4.86C16.79,4.13 14.04,3.29 10.88,4.51C7.54,5.8 5.2,6.97 3.87,3.91C3.83,3.82 3.73,3.78 3.65,3.81C3.29,3.95 3.04,4.14 2.8,4.53C1.58,4.09 0.29,4.55 0.02,4.66C-0.01,4.67 -0.02,4.71 -0.01,4.74C0.1,4.99 0.59,6.02 1.58,6.57C1.18,6.98 1.01,7.66 1.02,8.25C1.02,8.36 1.14,8.43 1.24,8.37C3.6,7.06 5.57,6.93 6.29,6.93C6.93,6.93 7.5,6.87 8.13,6.7C7.84,7.18 7.65,7.71 7.57,8.27C7.37,9.61 7.84,10.94 8.83,11.66C10.18,12.65 11.25,12.54 12,12.33C12.75,12.12 13.38,11.6 13.36,10.82C13.34,10.14 12.86,9.64 12.05,9.78C11.49,9.88 10.88,10.31 10.87,11.25C8.97,10.96 9.03,9.24 9.15,8.43C9.32,7.28 10.05,6.36 11.41,5.84C12.31,5.49 13.18,5.34 13.99,5.32C12.46,6.41 13.01,8.02 13.34,8.72C13.39,8.82 13.55,8.8 13.56,8.69C13.65,8.16 13.92,7.18 14.8,6.74C15.97,6.15 17.51,6.07 19.46,6.85C21.09,7.73 22.49,8.84 23.86,9.92C24,10.03 24.15,10.15 24.29,10.26C23.75,10.17 23.26,10.17 22.7,10.17C21.98,10.17 19.94,9.99 18.31,9.03C18.21,8.97 18.11,9.04 18.09,9.15C17.99,9.77 17.89,10.36 18.2,10.73C17.21,11.28 16.54,12.31 16.44,12.56C16.43,12.59 16.44,12.63 16.47,12.64C16.75,12.75 17.88,13.04 19.1,12.6C19.33,12.99 19.91,13.35 20.28,13.49C20.37,13.52 20.46,13.48 20.5,13.39C21.93,10.48 24.58,11.27 28.06,12.76C28.18,12.81 28.3,12.87 28.42,12.92C29.13,13.21 29.87,13.39 30.65,13.44C30.81,13.44 30.97,13.45 31.14,13.45C35.16,13.45 40,10.74 42.85,8.53C42.75,9.78 43.21,10.98 44.14,11.66C45.49,12.65 46.56,12.54 47.31,12.33C48.06,12.12 48.69,11.6 48.67,10.82C48.65,10.14 48.17,9.64 47.36,9.78C46.8,9.88 46.19,10.31 46.18,11.25C44.28,10.96 44.34,9.24 44.46,8.43C44.63,7.28 45.36,6.36 46.72,5.84C47.62,5.49 48.49,5.34 49.3,5.32C47.77,6.41 48.32,8.02 48.66,8.72C48.71,8.82 48.86,8.8 48.88,8.69C48.96,8.16 49.24,7.18 50.12,6.74C51.29,6.15 52.83,6.07 54.78,6.85C56.41,7.73 57.81,8.84 59.18,9.92C59.32,10.03 59.47,10.15 59.61,10.26C59.07,10.17 58.58,10.17 58.02,10.17C57.3,10.17 55.26,9.99 53.63,9.03C53.53,8.97 53.43,9.04 53.41,9.15C53.31,9.77 53.21,10.36 53.52,10.73C52.53,11.28 51.86,12.31 51.76,12.56C51.75,12.59 51.76,12.63 51.79,12.64C52.07,12.75 53.2,13.04 54.42,12.6C54.65,12.99 55.23,13.35 55.6,13.49C55.69,13.52 55.78,13.48 55.82,13.39C57.25,10.48 59.9,11.27 63.38,12.76C63.5,12.81 63.62,12.87 63.74,12.92C64.45,13.21 65.19,13.39 65.97,13.44C66.13,13.44 66.29,13.45 66.46,13.45C70.49,13.45 75.32,10.74 78.17,8.53C78.07,9.78 78.53,10.98 79.46,11.66C80.81,12.65 81.88,12.54 82.63,12.33C83.38,12.12 84.01,11.6 83.99,10.82C83.97,10.14 83.49,9.64 82.68,9.78C82.12,9.88 81.51,10.31 81.5,11.25C79.6,10.96 79.66,9.24 79.78,8.43C79.95,7.28 80.68,6.36 82.04,5.84C82.94,5.49 83.81,5.34 84.62,5.32C83.09,6.41 83.64,8.02 83.98,8.72C84.03,8.82 84.19,8.8 84.2,8.69C84.29,8.16 84.56,7.18 85.44,6.74C86.61,6.15 88.15,6.07 90.1,6.85C91.73,7.73 93.13,8.84 94.5,9.92C94.64,10.03 94.79,10.15 94.93,10.26C94.39,10.17 93.9,10.17 93.34,10.17C92.62,10.17 90.58,9.99 88.95,9.03C88.85,8.97 88.75,9.04 88.73,9.15C88.63,9.77 88.53,10.36 88.84,10.73C87.85,11.28 87.18,12.31 87.08,12.56C87.07,12.59 87.08,12.63 87.11,12.64C87.39,12.75 88.52,13.04 89.74,12.6C89.97,12.99 90.55,13.35 90.91,13.49C91,13.52 91.09,13.48 91.13,13.39C92.56,10.48 95.21,11.27 98.69,12.76C98.81,12.81 98.93,12.87 99.05,12.92C99.76,13.21 100.5,13.39 101.28,13.44C101.44,13.44 101.6,13.45 101.77,13.45C105.79,13.45 110.63,10.74 113.48,8.53C113.38,9.78 113.84,10.98 114.77,11.66C116.12,12.65 117.19,12.54 117.94,12.33C118.69,12.12 119.32,11.6 119.3,10.82C119.28,10.14 118.8,9.64 117.99,9.78C117.43,9.88 116.82,10.31 116.81,11.25C114.91,10.96 114.97,9.24 115.09,8.43C115.26,7.28 115.99,6.36 117.35,5.84C118.25,5.49 119.12,5.34 119.93,5.32C118.41,6.41 118.95,8.02 119.29,8.72C119.34,8.82 119.49,8.8 119.51,8.69C119.59,8.16 119.87,7.18 120.75,6.74C121.92,6.15 123.46,6.07 125.41,6.85C127.04,7.73 128.44,8.84 129.81,9.92C129.95,10.03 130.1,10.15 130.24,10.26C129.7,10.17 129.21,10.17 128.65,10.17C127.93,10.17 125.89,9.99 124.26,9.03C124.16,8.97 124.06,9.04 124.04,9.15C123.94,9.77 123.84,10.36 124.15,10.73C123.16,11.28 122.49,12.31 122.39,12.56C122.38,12.59 122.39,12.63 122.42,12.64C122.7,12.75 123.83,13.04 125.05,12.6C125.28,12.99 125.86,13.35 126.22,13.49C126.31,13.52 126.4,13.48 126.44,13.39C127.87,10.48 130.52,11.27 134,12.76C134.12,12.81 134.24,12.87 134.36,12.92C135.07,13.21 135.81,13.39 136.6,13.44C136.76,13.44 136.92,13.45 137.09,13.45C141.11,13.45 145.95,10.74 148.8,8.53C148.7,9.78 149.16,10.98 150.09,11.66C151.44,12.65 152.51,12.54 153.26,12.33C154.01,12.12 154.64,11.6 154.62,10.82C154.6,10.14 154.12,9.64 153.31,9.78C152.75,9.88 152.14,10.31 152.13,11.25C150.23,10.96 150.29,9.24 150.41,8.43C150.58,7.28 151.31,6.36 152.67,5.84C153.57,5.49 154.44,5.34 155.25,5.32C153.72,6.41 154.27,8.02 154.61,8.72C154.66,8.82 154.82,8.8 154.83,8.69C154.92,8.16 155.19,7.18 156.07,6.74C157.24,6.15 158.78,6.07 160.73,6.85C162.36,7.73 163.76,8.84 165.13,9.92C165.27,10.03 165.42,10.15 165.56,10.26C165.02,10.17 164.53,10.17 163.97,10.17C163.24,10.17 161.21,9.99 159.58,9.03C159.48,8.97 159.38,9.04 159.36,9.15C159.26,9.77 159.16,10.36 159.47,10.73C158.48,11.28 157.81,12.31 157.71,12.56C157.7,12.59 157.71,12.63 157.74,12.64C158.02,12.75 159.15,13.04 160.37,12.6C160.6,12.99 161.18,13.35 161.54,13.49C161.63,13.52 161.72,13.48 161.76,13.39C163.19,10.48 165.84,11.27 169.32,12.76C169.44,12.81 169.56,12.87 169.68,12.92C170.39,13.21 171.13,13.39 171.91,13.44C172.07,13.44 172.23,13.45 172.4,13.45C176.42,13.45 181.26,10.74 184.11,8.53C184.01,9.78 184.47,10.98 185.4,11.66C186.75,12.65 187.82,12.54 188.57,12.33C189.32,12.12 189.95,11.6 189.93,10.82C189.91,10.14 189.43,9.64 188.62,9.78C188.06,9.88 187.45,10.31 187.44,11.25C185.54,10.96 185.6,9.24 185.72,8.43C185.89,7.28 186.61,6.36 187.98,5.84C188.88,5.49 189.75,5.34 190.56,5.32C189.03,6.41 189.58,8.02 189.92,8.72C189.97,8.82 190.13,8.8 190.14,8.69C190.23,8.16 190.5,7.18 191.38,6.74C192.55,6.15 194.09,6.07 196.04,6.85C197.67,7.73 199.07,8.84 200.44,9.92C200.58,10.03 200.73,10.15 200.87,10.26C200.33,10.17 199.84,10.17 199.28,10.17C198.56,10.17 196.52,9.99 194.89,9.03C194.79,8.97 194.69,9.04 194.67,9.15C194.57,9.77 194.47,10.36 194.78,10.73C193.79,11.28 193.12,12.31 193.02,12.56C193.01,12.59 193.02,12.63 193.05,12.64C193.33,12.75 194.46,13.04 195.68,12.6C195.91,12.99 196.49,13.35 196.86,13.49C196.95,13.52 197.04,13.48 197.08,13.39C198.51,10.48 201.16,11.27 204.64,12.76C204.76,12.81 204.88,12.87 205,12.92C205.71,13.21 206.45,13.39 207.23,13.44C207.39,13.44 207.55,13.45 207.72,13.45C211.74,13.45 216.58,10.74 219.43,8.53C219.33,9.78 219.79,10.98 220.72,11.66C222.07,12.65 223.14,12.54 223.89,12.33C224.64,12.12 225.27,11.6 225.25,10.82C225.23,10.14 224.75,9.64 223.94,9.78C223.38,9.88 222.77,10.31 222.76,11.25C220.86,10.96 220.92,9.24 221.04,8.43C221.21,7.28 221.94,6.36 223.3,5.84C224.2,5.49 225.07,5.34 225.88,5.32C224.35,6.41 224.9,8.02 225.24,8.72C225.29,8.82 225.44,8.8 225.46,8.69C225.54,8.16 225.82,7.18 226.7,6.74C227.87,6.15 229.41,6.07 231.36,6.85C232.99,7.73 234.39,8.84 235.76,9.92C235.9,10.03 236.05,10.15 236.19,10.26C235.65,10.17 235.16,10.17 234.6,10.17C233.88,10.17 231.84,9.99 230.21,9.03C230.11,8.97 230.01,9.04 229.99,9.15C229.89,9.77 229.79,10.36 230.1,10.73C229.11,11.28 228.44,12.31 228.34,12.56C228.33,12.59 228.34,12.63 228.37,12.64C228.65,12.75 229.78,13.04 231,12.6C231.23,12.99 231.81,13.35 232.18,13.49C232.27,13.52 232.36,13.48 232.4,13.39C233.83,10.48 236.48,11.27 239.96,12.76C240.08,12.81 240.2,12.87 240.32,12.92C241.03,13.21 241.77,13.39 242.55,13.44C242.71,13.44 242.87,13.45 243.04,13.45C247.02,13.45 251.79,10.8 254.65,8.6L254.65,6.86C253.47,7.87 251.53,9.11 249.53,10.12C247.43,10.97 245.77,11.36 244.49,10.76" style="fill:rgb(215,164,97);"/>
    <path d="M102.55,43.03C101.85,42.47 101.08,42.05 100.2,41.84C99.72,41.72 99.24,41.74 98.76,41.86C98.02,42.06 97.41,42.47 96.86,42.98C95.58,44.18 94.69,45.62 94.24,47.32C93.96,48.38 93.9,49.46 94.13,50.54C94.46,52.15 95.61,53.28 97.23,53.58C97.8,53.69 98.37,53.69 98.94,53.63C99.65,53.56 100.36,53.47 101.07,53.41C101.47,53.38 101.87,53.37 102.27,53.39C103.04,53.44 103.8,53.58 104.49,53.97C105.08,54.31 105.51,54.77 105.69,55.44C105.56,55.79 105.37,56.07 105.14,56.33C104.84,56.68 104.55,57.02 104.24,57.36C103.01,58.68 101.64,59.85 100.24,60.98C97.19,63.45 93.91,65.58 90.54,67.57C85.66,70.44 80.53,72.82 75.29,74.96C74.42,75.32 69.66,76.84 69.66,76.84L80.5,76.84C85.03,75.24 90.42,72.31 91.07,71.96C93.35,70.71 95.52,69.27 97.62,67.74C99.26,66.55 100.87,65.31 102.35,63.91C103.18,63.13 103.97,62.3 104.74,61.46C105.59,60.53 106.1,59.42 106.32,58.18C106.53,57.06 106.72,55.93 106.87,54.8C107.29,51.63 106.71,48.66 105.06,45.91C104.39,44.8 103.57,43.81 102.56,43M101.49,48.75C100.3,48.91 99.11,48.98 97.92,48.94C97.58,48.93 97.24,48.88 96.92,48.75C96.64,48.64 96.43,48.46 96.35,48.08C96.59,47.39 97.05,46.86 97.81,46.62C98.36,46.45 98.88,46.54 99.38,46.78C100.24,47.18 100.97,47.76 101.57,48.5C101.6,48.54 101.59,48.6 101.6,48.66C101.56,48.69 101.52,48.75 101.48,48.75" style="fill:rgb(0,84,48);"/>
    <path d="M238.61,71.98C240.89,70.73 243.05,69.29 245.16,67.76C246.8,66.57 248.41,65.33 249.89,63.93C250.72,63.15 251.51,62.32 252.28,61.48C253.13,60.55 253.64,59.44 253.86,58.2C254.07,57.08 254.26,55.95 254.42,54.82C254.84,51.65 254.26,48.68 252.61,45.93C251.94,44.82 251.12,43.83 250.11,43.02C249.41,42.46 248.64,42.04 247.76,41.83C247.28,41.71 246.8,41.73 246.32,41.85C245.58,42.05 244.97,42.46 244.42,42.97C243.14,44.17 242.25,45.61 241.8,47.31C241.52,48.37 241.46,49.45 241.68,50.53C242.01,52.14 243.16,53.27 244.78,53.57C245.35,53.68 245.92,53.68 246.49,53.62C247.2,53.55 247.91,53.46 248.62,53.4C249.02,53.37 249.42,53.36 249.82,53.38C250.59,53.43 251.35,53.57 252.04,53.96C252.63,54.3 253.06,54.76 253.24,55.43C253.11,55.78 252.92,56.06 252.69,56.32C252.39,56.67 252.1,57.01 251.79,57.35C250.56,58.67 249.19,59.84 247.79,60.97C244.74,63.44 241.46,65.57 238.09,67.56C233.21,70.43 228.08,72.81 222.84,74.95C221.97,75.31 217.21,76.83 217.21,76.83L228.05,76.83C232.58,75.23 237.97,72.3 238.62,71.95M249.05,48.75C247.86,48.91 246.67,48.98 245.48,48.94C245.14,48.93 244.8,48.88 244.48,48.75C244.2,48.64 243.99,48.46 243.91,48.08C244.15,47.39 244.61,46.86 245.37,46.62C245.92,46.45 246.44,46.54 246.94,46.78C247.8,47.18 248.53,47.76 249.13,48.5C249.16,48.54 249.15,48.6 249.16,48.66C249.12,48.69 249.08,48.75 249.04,48.75" style="fill:rgb(0,84,48);"/>
    <path d="M198.01,39.61C196.72,41.85 196.33,42.43 195.87,42.86C195.74,42.75 195.61,42.65 195.49,42.53C194.96,42 194.43,41.47 193.91,40.93C193.75,40.77 193.6,40.59 193.47,40.4C193.43,40.34 193.46,40.24 193.45,40.14C193.84,40.03 194.21,40.12 194.57,40.14C194.89,40.16 195.2,40.18 195.52,40.18C195.63,40.18 195.74,40.11 195.74,39.92C195.63,39.72 195.4,39.58 195.19,39.44C194.56,39.03 193.94,38.61 193.3,38.23C192.02,37.45 190.73,36.68 189.45,35.91C189.3,35.82 189.15,35.72 188.97,35.84C188.83,36.93 188.74,39.92 188.83,40.56C189.72,40.94 189.93,41.11 190.45,41.9C190.47,41.92 190.48,41.95 190.49,41.97C191.22,43.11 192.02,44.2 192.89,45.25C193.15,45.56 193.39,45.87 193.67,46.21C193.67,46.21 189.07,52.24 189.38,58.54C189.48,60.56 190.14,62.83 192.89,62.83C196.16,62.83 199.79,59.12 200.21,58.41C201.02,57.07 201.38,55.6 201.48,54.06C201.55,52.97 201.51,51.87 201.34,50.79C201.14,49.55 200.75,48.39 200.05,47.34C199.51,46.52 198.88,45.77 198.21,45.05C198.06,44.88 197.91,44.71 197.76,44.52C197.84,44.37 197.9,44.24 197.97,44.12C198.63,42.9 199.28,41.68 199.94,40.47C201.01,38.53 200.97,38.47 201.41,36.09C201.62,34.94 202.1,32.65 202.1,32.65L201.65,32.65C201.65,32.65 200.53,34.98 199.93,36.12C199.32,37.29 198.67,38.45 198.01,39.6M200.29,53.69C200.29,53.69 196.14,57.91 192.9,57.91C191.5,57.91 190.6,57.09 190.6,57.09C190.6,54.42 195.17,48.26 195.33,48.06C195.46,48.15 197.82,49.88 200.29,53.69" style="fill:rgb(0,84,48);"/>
    <path d="M4.24,32.1C4.31,32.14 4.4,32.15 4.47,32.17C4.72,32.07 4.82,31.85 4.94,31.66C5.47,30.84 5.98,30 6.51,29.18C6.63,28.99 6.71,28.76 6.99,28.66C7.74,29.09 8.46,29.61 9.21,30.1C9.98,30.6 10.75,31.11 11.55,31.64C11.69,31.53 11.77,31.48 11.82,31.41C12.55,30.27 13.27,29.13 13.99,27.98C14.03,27.91 14.04,27.82 14.06,27.75C13.52,27.27 10.91,25.53 9.68,24.82C9.56,24.75 9.43,24.71 9.27,24.64C9.13,24.82 9,24.96 8.89,25.13C8.35,25.98 7.81,26.83 7.27,27.68C7.16,27.84 7.04,27.99 6.9,28.17C6.44,27.98 6.09,27.67 5.71,27.43C5.32,27.19 4.94,26.92 4.56,26.67C4.17,26.42 3.79,26.17 3.39,25.93C3,25.69 2.63,25.41 2.23,25.24C2.15,25.29 2.08,25.3 2.05,25.34C1.32,26.48 0.59,27.62 -0.14,28.76C-0.18,28.83 -0.18,28.92 -0.2,28.99C-0.17,29.06 -0.17,29.14 -0.13,29.17C1.32,30.15 2.78,31.13 4.24,32.1" style="fill:rgb(0,84,48);"/>
    <path d="M186.44,29.35C187.81,30.26 189.18,31.17 190.55,32.07C190.64,32.13 190.76,32.14 190.86,32.17C191.11,32 191.23,31.77 191.36,31.55C191.9,30.7 192.44,29.85 192.98,29C193.07,28.86 193.14,28.69 193.39,28.67C194.89,29.61 196.37,30.66 197.9,31.61C198.01,31.54 198.09,31.5 198.15,31.44C198.41,31.11 200.21,28.21 200.44,27.75C200.37,27.68 200.31,27.58 200.22,27.52C198.82,26.61 197.42,25.7 196.02,24.79C195.91,24.72 195.77,24.69 195.6,24.62C194.79,25.78 194.12,26.99 193.26,28.2C192.41,27.67 191.66,27.14 190.89,26.65C190.12,26.16 189.37,25.62 188.55,25.23C188.12,25.71 187.03,27.34 186.24,28.71C186.18,28.8 186.16,28.92 186.12,29.04C186.24,29.15 186.33,29.27 186.44,29.34" style="fill:rgb(0,84,48);"/>
    <path d="M65.04,71.98C64.47,72.32 63.91,72.66 63.33,72.99C62.1,73.7 60.82,74.28 59.46,74.68C58.48,74.97 57.48,75.05 56.47,74.98C56.13,74.95 55.79,74.87 55.47,74.75C55.05,74.59 54.73,74.31 54.66,73.84C54.71,73.44 54.92,73.12 55.16,72.84C55.42,72.53 55.69,72.22 55.99,71.97C56.71,71.36 57.45,70.76 58.2,70.17C58.74,69.74 59.3,69.34 59.85,68.94C60.04,68.4 60.22,67.88 60.4,67.37C60.41,67.33 60.39,67.27 60.38,67.22C60.25,67.15 60.16,67.22 60.08,67.3C59.76,67.55 59.45,67.8 59.13,68.05C58.72,68.36 58.3,68.68 57.88,68.98C57.46,69.28 56.98,69.37 56.49,69.2C56.05,69.06 55.62,68.91 55.2,68.72C54.94,68.6 54.72,68.41 54.5,68.23C54.34,68.1 54.25,67.91 54.33,67.65C54.74,67.15 55.28,66.81 55.96,66.74C56.5,66.9 56.6,66.94 56.75,67.1C56.95,67.32 57.06,67.58 57.09,67.87C57.09,67.95 57.11,68.04 57.15,68.12C57.2,68.22 57.25,68.33 57.44,68.3C57.85,67.76 57.83,67.1 57.81,66.44C57.78,65.83 57.65,65.24 57.17,64.86C56.7,64.68 56.33,64.86 55.98,65.06C54.72,65.79 53.82,66.86 53.19,68.16C53.13,68.29 53.1,68.43 53.05,68.57C52.9,68.98 52.99,69.36 53.22,69.72C53.43,70.04 53.72,70.28 54.06,70.45C54.39,70.62 54.75,70.74 55.09,70.89C55.24,70.96 55.44,70.94 55.53,71.19C55.44,71.3 55.34,71.43 55.23,71.56C54.94,71.92 54.64,72.27 54.37,72.64C54.01,73.16 53.73,73.73 53.59,74.36C53.38,75.31 53.78,76.19 54.76,76.58C55.22,76.76 55.69,76.87 56.19,76.89C57.12,76.93 58.03,76.79 58.92,76.55C60.67,76.07 62.25,75.27 63.58,74.02C64.08,73.55 64.57,73.06 65.06,72.57C65.24,72.39 65.42,72.19 65.58,72C65.62,71.95 65.62,71.87 65.65,71.74C65.39,71.81 65.22,71.91 65.05,72.01" style="fill:rgb(0,84,48);"/>
    <path d="M175.43,70.4L175.22,69.97C174.96,70.17 170.55,74.41 166.44,74.41C165.19,74.41 164.71,73.74 164.71,73.08C164.71,71.99 167.41,68.69 167.41,67.24C167.41,66.66 167.34,66.07 165.97,66.07C164.22,66.07 162.99,66.39 162.64,67.05C162.37,67.56 161.8,68.74 161.8,68.74L161.99,69.01C161.99,69.01 163.13,68.49 164.99,68.49C165.59,68.49 165.86,68.66 165.86,68.91C165.86,69.59 163.38,72.85 163.36,74.81C163.36,75.98 164.17,76.8 165.49,76.8C171.08,76.8 175.43,70.4 175.43,70.4" style="fill:rgb(0,84,48);"/>
    <path d="M124.08,28.02C124.02,28.41 123.95,28.81 123.95,29.2C123.95,29.63 123.97,30.07 124.04,30.49C124.25,31.72 125.89,32.67 127.18,31.82C127.58,31.56 127.94,31.25 128.18,30.85C128.42,30.45 128.61,30.02 128.82,29.61C128.94,29.37 128.95,29.07 129.14,28.83C129.51,29.1 129.47,29.5 129.62,29.82C130.03,30.71 130.69,31.25 131.64,31.46C132.33,31.61 132.92,31.41 133.42,30.93C133.74,30.62 133.97,30.25 134.1,29.84C134.23,29.39 134.34,28.93 134.4,28.47C134.52,27.6 134.39,26.75 134.09,25.92C133.65,24.7 133.22,23.48 132.92,22.21C132.9,22.12 132.84,22.03 132.8,21.95C132.74,21.97 132.69,21.97 132.68,21.99C132.17,22.86 131.91,23.77 132.24,24.77C132.5,25.56 132.77,26.34 133.04,27.12C133.22,27.66 133.44,28.2 133.51,28.81C133.41,28.93 133.37,29.01 133.31,29.03C132.24,29.55 131.06,29.2 130.54,28.17C130.32,27.73 130.18,27.23 130.08,26.74C129.97,26.18 129.94,25.6 129.9,25.02C129.84,24.04 129.59,23.1 129.21,22.2C129.17,22.11 129.07,22.06 128.96,21.95C128.59,22.49 128.41,23.07 128.2,23.61C128.37,24.38 128.54,25.12 128.69,25.85C128.87,26.68 128.76,27.51 128.57,28.31C128.49,28.65 128.3,28.98 128.08,29.26C127.23,30.3 126.14,30.27 125.27,29.21C125.23,29.16 125.21,29.08 125.15,28.97C125.01,28.33 125.06,27.65 125.21,26.98C125.4,26.13 125.43,25.26 125.37,24.4C125.34,23.97 125.21,23.55 125.12,23.13C125.1,23.03 125.02,22.95 124.95,22.81C124.47,23.43 124.2,24 123.97,24.56C124.37,26.16 124.37,26.34 124.11,28.02" style="fill:rgb(0,84,48);"/>
    <path d="M129.67,66.34C129.13,65.92 125.42,63.67 124.65,63.36C124.26,63.86 122.48,67.14 122.44,67.29C122.58,67.41 125.49,69.4 127.33,70.19C127.95,69.53 129.17,67.58 129.67,66.35" style="fill:rgb(0,84,48);"/>
    <path d="M232.68,28.33C232.14,27.91 228.43,25.66 227.66,25.35C227.26,25.85 225.49,29.13 225.45,29.28C225.59,29.39 228.5,31.39 230.34,32.18C230.96,31.52 232.18,29.57 232.68,28.34" style="fill:rgb(0,84,48);"/>
    <path d="M107.21,21.94C106.1,21.94 105.55,24.03 105.38,24.94C104.98,26.88 104.89,29.46 104.8,30.07C103.91,28.84 103.24,27.58 102.47,26.4C101.76,25.31 100.79,24.51 99.59,24.01C98.61,23.59 98.45,26.32 99.55,26.9C100.3,27.3 101.37,27.13 101.95,27.75C102.79,28.67 103.79,30.95 104.54,32.53C104.97,33.39 105.24,32.76 105.42,32.01C105.88,30.05 105.86,23.99 107.51,24.64C107.94,24.8 108.51,25.42 108.51,25.42L109.25,23.48C109.25,23.48 107.93,21.95 107.2,21.95" style="fill:rgb(0,84,48);"/>
    <path d="M244.85,26.89C245.6,27.29 246.67,27.12 247.25,27.74C248.08,28.66 249.09,30.94 249.84,32.52C250.26,33.38 250.54,32.75 250.72,32C251.18,30.05 251.16,23.99 252.81,24.63C253.23,24.79 253.81,25.41 253.81,25.41L254.55,23.47C254.55,23.47 253.23,21.94 252.5,21.94C251.39,21.94 250.84,24.03 250.67,24.94C250.27,26.88 250.18,29.46 250.09,30.07C249.2,28.84 248.53,27.58 247.76,26.4C247.05,25.31 246.08,24.51 244.88,24.01C243.9,23.59 243.74,26.32 244.84,26.9" style="fill:rgb(0,84,48);"/>
    <path d="M24.99,31.31C24.99,37.87 27.71,44.5 27.71,48.53L28.51,48.53C28.51,42.58 26.63,35.35 26.63,30.77C26.63,28.99 26.9,27.05 29.34,27.05C31.4,27.05 32.64,27.97 32.64,27.97L33.69,25.82C33.69,25.82 31.76,21.86 28.98,21.86C26.92,21.86 25.93,24.46 25.66,25.7L26.29,25.97C26.67,25.19 27.92,24.26 29.06,24.26C30.08,24.26 31.03,24.93 31.03,24.93L30.96,25.3C25.8,25.3 24.99,30.18 24.99,31.32" style="fill:rgb(0,84,48);"/>
    <path d="M40.25,41.34L40.68,42.18C44.59,39.98 51.24,36.01 54.84,31.89C55.44,31.2 56.12,30.35 56.5,29.75C57.81,30.33 59.11,31.46 59.11,31.46L59.48,29.15C59.48,29.15 58.7,28.4 57.45,27.83C58.13,26.17 58.84,21.94 56.4,21.94C55.43,21.94 52.88,23.49 52.91,26.64C52.91,26.88 52.96,27.11 53.05,27.33C53.18,27.63 53.44,27.91 53.77,28.15C54.37,28.6 55.02,28.93 55.66,29.26C55.22,29.81 54.74,30.31 54.32,30.72C52.54,32.46 42.85,39.82 40.25,41.33M55.48,26.71C55.09,26.5 54.71,26.28 54.37,26.02L54.34,26C54.18,25.88 53.99,25.72 53.86,25.55C53.86,25.54 53.84,25.53 53.84,25.52C53.7,25.32 53.76,25.18 53.86,25.05C54.1,24.73 54.48,24.4 54.88,24.2C55.38,23.95 55.91,23.91 56.37,24.27C56.79,24.6 57.03,25.16 57.1,25.71C57.14,25.98 57.12,26.29 57.06,26.62C57.01,26.88 56.93,27.16 56.81,27.43C56.53,27.28 56.24,27.13 55.99,27C55.84,26.91 55.66,26.81 55.48,26.71" style="fill:rgb(0,84,48);"/>
    <path d="M133.6,50.65C133.6,50.65 133.57,51.1 133.56,51.24C133.53,51.82 133.48,52.39 133.46,52.97C133.42,54.3 133.55,55.62 133.9,56.91C134.65,59.74 136.32,61.84 138.93,63.19C140.3,63.9 141.77,64.29 143.3,64.47C144.65,64.63 146,64.64 147.36,64.52C149.46,64.33 151.52,63.93 153.53,63.29C156.11,62.46 158.62,61.43 161.05,60.24C162.99,59.29 164.9,58.28 166.84,57.32C168.23,56.63 169.64,55.96 171.04,55.29C171.78,54.94 172.64,54.65 173.58,54.43L173.58,54.87C173.58,59.32 173.09,61.81 173.58,61.81C174.12,61.81 175.19,58.13 175.67,54.07C176.78,53.94 177.96,53.87 179.2,53.87C182.09,53.87 183.77,54.12 183.77,54.12L185.76,49.89L185.37,49.31L183.55,49.31C180.85,49.31 178.27,49.23 175.9,49.1C175.79,37.73 174.08,28.62 173.26,21.95L169.85,21.95C170.21,24.37 172.61,37.75 173.35,48.94C166.14,48.42 161.3,47.53 161.13,47.48C161.21,47.27 161.26,47.11 161.33,46.96C162.41,44.65 162.81,42.19 162.89,39.66C162.98,36.95 162.76,34.25 162.5,31.55C162.27,29.14 161.99,26.74 161.72,24.33C161.68,23.94 161.55,23.11 161.38,21.96L158.26,21.96C158.86,25.95 159.33,29.3 159.44,30.24C159.64,32.04 159.82,33.85 160.04,35.65C160.31,37.88 160.5,40.12 160.62,42.36C160.65,42.99 160.64,43.63 160.64,44.26C160.64,44.43 160.59,44.59 160.56,44.79C160.35,44.85 160.16,44.92 159.97,44.95C158.97,45.07 157.97,45.17 156.96,45.29C155.3,45.48 153.64,45.65 151.98,45.86C151.07,45.98 150.16,46.16 149.28,46.42C148.57,46.62 148.05,47.03 147.75,47.71C147.33,48.63 146.9,49.54 146.48,50.45C146.4,50.63 146.34,50.83 146.3,51.02C146.28,51.12 146.32,51.23 146.33,51.31C146.41,51.34 146.43,51.37 146.46,51.36C146.57,51.35 146.69,51.36 146.8,51.31C147.48,51.04 148.19,50.98 148.92,50.97C150.37,50.93 151.8,51.1 153.23,51.24C153.72,51.29 154.2,51.33 154.69,51.41C156.03,51.61 157.37,51.82 158.7,52.04C160.89,52.39 163.08,52.75 165.27,53.12C165.43,53.15 165.59,53.22 165.75,53.27C165.67,53.53 165.45,53.57 165.28,53.66C162.43,55.13 159.53,56.46 156.51,57.54C153.44,58.64 150.31,59.5 147.03,59.75C145.46,59.87 143.92,59.8 142.39,59.48C140.46,59.08 138.74,58.25 137.3,56.88C136.47,56.08 135.89,55.14 135.55,54.04C135.17,52.81 135.13,51.55 135.29,50.28C135.29,50.2 135.33,50.04 135.33,50.04C140.2,48.25 146.11,46.16 146.11,46.16L147.4,42.68L146.94,41.9C146.94,41.9 140.14,42.72 135.31,42.72C128.86,42.72 122.15,41.9 119.14,41.9C114.67,41.9 111.82,44.76 111.42,44.99C110.89,46.45 110.73,46.88 110.27,48.28C110.24,48.38 110.04,49.09 110.9,49.09C112.56,49.09 119.01,48.22 119.01,48.22C119.01,48.22 119.76,47.35 120.13,46.93C120.43,46.93 129.22,47.2 131.3,47.22L131.36,47.5C127.59,49.19 119.47,52.69 114.43,61.5C112.8,64.36 112.07,67.56 111.67,70.81C111.42,72.82 111.39,74.9 111.59,76.89L113.86,76.89C113.54,75.63 113.35,74.6 113.34,73.67C113.32,71.85 113.47,70.05 113.93,68.27C115.26,63.16 118.04,59.06 122.36,55.99C123.87,54.92 125.51,54.08 127.18,53.29C130.85,51.55 133.56,50.67 133.56,50.67" style="fill:rgb(0,84,48);"/>
    <path d="M43.17,68.43C43.3,68.2 43.41,67.97 43.49,67.72C44.2,65.68 44.49,63.58 44.16,61.43C44.14,61.33 44.16,61.22 44.17,61.09C44.32,61.07 44.43,61.04 44.54,61.04C45.32,61.04 46.09,60.96 46.86,60.86C49.16,60.58 59.79,55.49 60.11,55.32C63.16,58.31 64.98,61.15 69.31,61.15C73.64,61.15 76.68,58.31 77.25,57.02C77.82,55.72 78.23,54.38 78.5,52.99C78.93,50.78 79.09,48.54 79.16,46.29C79.22,44.27 79.09,42.26 78.92,40.25C78.75,38.19 77.07,24.12 76.81,21.95L73.71,21.95C73.94,23.99 76.71,49.93 76.76,53.29C76.76,53.55 76.72,53.8 76.7,54.03C76.26,54.55 73.27,56.19 70.56,56.45C69.04,56.59 67.64,56.26 66.37,55.41C65.54,54.85 64.02,53.22 64.02,53.22C65.05,52.47 69.52,50.18 71.37,49.47C71.81,48.08 72.15,46.63 72.49,45.17C72.52,45.04 72.51,44.89 72.52,44.78C71.56,44.06 69.3,43.17 66.97,42.59C63.49,41.72 59.97,41.51 56.42,42.06C53.9,42.45 51.49,43.21 49.25,44.36L47.18,49.61C47.18,49.61 49.07,48.51 50.57,48.51C53.34,48.51 54.56,50.12 57.07,52.62C57.07,52.62 49.88,56.22 44.44,56.22C40.22,56.22 37.88,52.93 37.8,52.88C37.36,53.19 37.11,54.3 37.11,54.3C37.11,54.3 36.01,54.28 35.49,54.28C22.74,54.28 13.17,72.43 5.2,72.43C1.93,72.43 0.98,69.2 0.98,67.49C0.98,63.22 3.02,59.17 3.02,59.17C3.02,59.17 3.06,59.92 3.08,60.08C3.15,60.51 3.19,60.94 3.3,61.36C3.53,62.28 4.07,62.96 4.95,63.34C5.49,63.58 6.06,63.64 6.64,63.56C7.21,63.49 7.77,63.38 8.32,63.19C9.7,62.73 10.93,61.99 12.09,61.11C13.08,60.36 13.79,59.4 14.3,58.28C14.65,57.52 14.86,56.71 15,55.88C15.23,54.47 15.2,53.07 15,51.66C14.81,50.36 14.41,49.14 13.67,48.04C13.11,47.2 11.56,45.44 11.38,45.24C11.5,45.02 13.1,42.06 14.23,39.86C14.46,39.42 15.76,33.97 15.76,33.97L14.97,33.97L9.54,43.56C9.43,43.49 7.2,41.27 7.11,41.15C7.04,41.05 7.03,40.94 7.14,40.84C7.44,40.75 7.76,40.84 8.07,40.86C8.41,40.88 8.76,40.9 9.1,40.9C9.19,40.9 9.28,40.81 9.42,40.73C9.29,40.58 9.21,40.46 9.1,40.38C7.05,38.99 4.94,37.69 2.76,36.51C2.72,36.49 2.65,36.53 2.55,36.55C2.47,38.11 2.35,39.69 2.39,41.25C2.73,41.43 3.06,41.56 3.32,41.77C3.58,41.98 3.81,42.26 4,42.55C4.89,43.94 5.88,45.24 6.93,46.51C7.05,46.66 7.15,46.83 7.28,47.02C7.14,47.26 6.2,48.67 5.57,49.73C4.56,51.45 3.76,53.27 3.33,55.23C3.21,55.79 3.12,56.36 3.02,56.94C0.79,60.81 -0.25,64.75 -0.26,67.49C-0.27,70.71 1.37,76.68 6.66,76.88C14.76,77.19 21.54,59.08 36.42,59.08C36.42,59.87 36.38,60.7 36.54,61.52C36.7,62.34 36.95,63.14 37.32,63.89C37.69,64.64 38.16,65.33 38.72,65.96C39.28,66.58 39.91,67.14 40.6,67.61C41.29,68.07 41.98,68.54 42.83,68.76C42.94,68.65 43.06,68.56 43.13,68.45M65.76,47.51C65.76,47.83 61.11,50.28 61.11,50.28C61.11,50.28 57.51,47.23 57.51,46.87C57.51,45.9 65.77,46.56 65.77,47.51M4.37,56.87C4.57,56.24 4.77,55.61 5.05,55.01C5.45,54.18 5.89,53.37 6.37,52.59C7.09,51.45 7.86,50.33 8.61,49.21C8.72,49.05 8.87,48.92 8.99,48.79C9.06,48.82 9.09,48.83 9.11,48.85C10.36,50.03 11.61,51.22 12.73,52.54C13.3,53.21 13.58,53.68 13.89,54.41C13.8,54.55 13.71,54.73 13.57,54.87C13.01,55.46 12.37,55.95 11.71,56.4C10.52,57.22 9.27,57.91 7.88,58.34C7.13,58.57 6.37,58.68 5.58,58.61C5.08,58.57 4.62,58.44 4.32,57.99C4.2,57.6 4.24,57.23 4.36,56.88" style="fill:rgb(0,84,48);"/>
    <path d="M85.93,31.34C86.12,33.23 86.36,35.12 86.57,37C86.73,38.43 86.88,39.86 87.02,41.29C87.17,42.89 87.31,44.5 87.44,46.11C87.53,47.29 87.61,48.46 87.68,49.64C87.78,51.34 87.91,53.03 87.95,54.73C88,56.72 87.98,58.7 88,60.69C88,60.95 87.99,61.21 88.02,61.47C88.04,61.63 88.13,61.79 88.2,61.99C88.33,61.91 88.46,61.87 88.51,61.79C88.65,61.57 88.78,61.34 88.86,61.1C89.09,60.45 89.31,59.79 89.49,59.13C89.98,57.35 90.2,55.51 90.32,53.67C90.48,51.05 90.45,48.43 90.3,45.81C90.18,43.77 90,41.73 89.83,39.7C89.72,38.35 89.58,37.01 89.43,35.66C89.23,33.83 89,32 88.8,30.17C88.66,28.97 88.54,27.77 88.4,26.57C88.35,26.19 88.15,24.44 87.86,21.94L84.93,21.94C85.14,23.83 85.28,25.11 85.3,25.42C85.44,27.4 85.73,29.37 85.94,31.34" style="fill:rgb(0,84,48);"/>
    <path d="M219.04,61.8C219.75,61.8 221.38,55.45 221.38,50.22C221.38,38.32 219.58,28.83 218.73,21.94L215.32,21.94C215.75,24.82 219.04,43.1 219.04,54.86C219.04,59.31 218.55,61.8 219.04,61.8" style="fill:rgb(0,84,48);"/>
    <path d="M231.56,61.97C232.5,60.92 233.19,59.74 233.43,58.33C233.73,56.52 233.77,56.12 233.97,54.22C234.09,53.12 233.92,52.04 233.64,50.97C233.34,49.84 232.81,48.83 232.21,47.84C231.44,46.56 230.44,44.83 229.69,43.53L229.83,43.37C229.83,43.37 231.17,43.54 231.56,43.54C232.28,43.54 232.39,42.88 231.7,42.19C230.41,40.9 227.55,38.07 227.55,38.07L226.65,38.07L225.57,43.37C227.31,44.31 226.8,46.1 232.25,56.15C227.77,62.11 214.17,70.58 199.87,76.86L209.48,76.86C224.56,69.68 230.29,63.39 231.56,61.97" style="fill:rgb(0,84,48);"/>
    <path d="M210.47,56.15C205.99,62.11 192.39,70.58 178.09,76.86L187.7,76.86C202.78,69.68 208.5,63.39 209.78,61.97C210.72,60.92 211.41,59.74 211.65,58.33C211.95,56.52 211.99,56.12 212.19,54.22C212.3,53.12 212.14,52.04 211.86,50.97C211.56,49.84 211.03,48.83 210.43,47.84C209.66,46.56 208.66,44.83 207.91,43.53L208.05,43.37C208.05,43.37 209.39,43.54 209.78,43.54C210.5,43.54 210.61,42.89 209.92,42.19C208.63,40.9 205.77,38.07 205.77,38.07L204.87,38.07L203.79,43.37C205.53,44.31 205.02,46.1 210.47,56.15" style="fill:rgb(0,84,48);"/>
    <path d="M6.85,91.51L6.43,93.08L6.03,91.49L2.46,81.73L-0.23,81.73L-0.23,95.27L1.89,95.27L1.89,85.34L2.01,85.77L5.43,95.27L7.43,95.27L10.84,85.79L10.97,85.32L10.97,95.27L13.09,95.27L13.09,81.73L10.39,81.73L6.85,91.51Z" style="fill:rgb(0,84,48);"/>
    <rect x="16.44" y="81.73" width="2.14" height="13.54" style="fill:rgb(0,84,48);"/>
    <path d="M30.82,92.06L24.37,81.73L21.92,81.73L21.92,95.27L24.04,95.27L24.04,84.92L30.48,95.27L32.95,95.27L32.95,81.73L30.82,81.73L30.82,92.06Z" style="fill:rgb(0,84,48);"/>
    <rect x="36.29" y="81.73" width="2.14" height="13.54" style="fill:rgb(0,84,48);"/>
    <path d="M47.02,87.51C46.65,87.41 46.17,87.28 45.8,87.16C44.4,86.71 43.7,86.29 43.7,85.12L43.7,85.09C43.7,84.12 44.52,83.42 46.25,83.42C47.57,83.42 48.9,83.8 49.9,84.47L50.72,82.68C49.57,81.93 47.9,81.51 46.23,81.51C43.31,81.51 41.56,82.96 41.56,85.13L41.56,85.16C41.56,87.18 42.61,88.35 45.01,89.05L46.18,89.4C48.13,89.98 48.87,90.5 48.87,91.52L48.87,91.55C48.87,92.75 47.79,93.54 45.85,93.54C44.43,93.54 43.03,93.12 42.01,92.42L41.18,94.2C42.38,95 44.13,95.45 45.94,95.45C49.08,95.45 51.03,93.98 51.03,91.51L51.03,91.48C51.03,89.49 49.88,88.29 47.02,87.49" style="fill:rgb(0,84,48);"/>
    <path d="M52.56,83.73L56.97,83.73L56.97,95.27L59.1,95.27L59.1,83.73L63.49,83.73L63.49,81.73L52.56,81.73L52.56,83.73Z" style="fill:rgb(0,84,48);"/>
    <path d="M75.61,85.69L75.61,85.67C75.61,83.37 74.21,81.73 70.82,81.73L65.6,81.73L65.6,95.27L67.74,95.27L67.74,89.81L70.23,89.81L73.62,95.27L75.97,95.27L72.43,89.65C74.52,89.17 75.62,87.66 75.62,85.69M67.73,87.95L67.73,83.72L70.98,83.72C72.5,83.72 73.47,84.39 73.47,85.76L73.47,85.78C73.47,87.16 72.52,87.95 70.98,87.95L67.73,87.95Z" style="fill:rgb(0,84,48);"/>
    <path d="M83.14,88.09L79.48,81.73L77.08,81.73L82.07,90.09L82.07,95.27L84.21,95.27L84.21,90.09L89.22,81.73L86.81,81.73L83.14,88.09Z" style="fill:rgb(0,84,48);"/>
    <path d="M100.05,81.51L100.03,81.51C95.86,81.51 93.25,84.6 93.25,88.45L93.25,88.47C93.25,92.31 95.87,95.46 100.03,95.46L100.05,95.46C104.17,95.46 106.81,92.31 106.81,88.47L106.81,88.45C106.81,84.59 104.19,81.51 100.05,81.51M104.67,88.46C104.65,91.25 102.78,93.38 100.05,93.38L100.03,93.38C97.28,93.38 95.41,91.24 95.39,88.46L95.39,88.44C95.39,85.64 97.24,83.58 100.03,83.58L100.05,83.58C102.8,83.58 104.67,85.63 104.67,88.44L104.67,88.46Z" style="fill:rgb(0,84,48);"/>
    <path d="M109.26,95.27L111.4,95.27L111.4,89.33L117.05,89.33L117.05,87.32L111.4,87.32L111.4,83.73L117.67,83.73L117.67,81.73L109.26,81.73L109.26,95.27Z" style="fill:rgb(0,84,48);"/>
    <path d="M132.09,87.32L125.55,87.32L125.55,81.73L123.41,81.73L123.41,95.27L125.55,95.27L125.55,89.33L132.09,89.33L132.09,95.27L134.23,95.27L134.23,81.73L132.09,81.73L132.09,87.32Z" style="fill:rgb(0,84,48);"/>
    <path d="M141.09,81.73L136.08,95.27L138.28,95.27L139.6,91.62L145.19,91.62L146.53,95.27L148.73,95.27L143.67,81.73L141.08,81.73L141.09,81.73ZM140.25,89.69L142.34,83.98L142.37,83.83L142.42,83.98L144.52,89.69L140.25,89.69Z" style="fill:rgb(0,84,48);"/>
    <path d="M161.84,91.47C161.84,93.04 161.14,93.42 160.02,93.42L158.29,93.42L158.29,95.27L160.49,95.27C162.76,95.27 163.98,94.14 163.98,91.48L163.98,81.73L161.84,81.73L161.84,91.47Z" style="fill:rgb(0,84,48);"/>
    <path d="M154.22,91.47C154.22,93.04 153.52,93.42 152.4,93.42L150.67,93.42L150.67,95.27L152.87,95.27C155.14,95.27 156.36,94.14 156.36,91.48L156.36,81.73L154.22,81.73L154.22,91.47Z" style="fill:rgb(0,84,48);"/>
    <path d="M180.78,87.92L178.84,87.92C178.54,89.39 178.42,90.12 177.86,91.14L175.22,88.19C177.74,87.07 178.34,85.87 178.34,84.55L178.34,84.53C178.34,82.74 177,81.49 174.69,81.49C172.38,81.49 170.87,82.74 170.87,84.44L170.87,84.46C170.87,85.79 171.34,86.66 172.29,87.81C170.07,88.79 169,89.93 169,91.63L169,91.66C169,93.96 170.75,95.46 173.61,95.46C175.19,95.46 176.58,94.88 177.73,93.89L178.93,95.24L181.58,95.24L179.09,92.47C180.07,91 180.36,89.83 180.78,87.9M172.91,84.57C172.91,83.7 173.66,83.12 174.78,83.12C175.9,83.12 176.57,83.7 176.57,84.64L176.57,84.66C176.57,85.41 176.27,86.13 174.2,87.01C173.4,86.08 172.92,85.48 172.92,84.59L172.92,84.57L172.91,84.57ZM173.86,93.66C172.19,93.66 171.17,92.81 171.17,91.56L171.17,91.51C171.17,90.39 171.87,89.64 173.31,89.01L176.55,92.6C175.76,93.25 174.83,93.67 173.86,93.67" style="fill:rgb(0,84,48);"/>
    <path d="M195.83,89.44C195.83,92.18 194.83,93.38 192.29,93.38C189.75,93.38 188.73,92.18 188.73,89.44L188.73,81.73L186.59,81.73L186.59,89.99C186.59,93.44 188.26,95.46 192.28,95.46C196.3,95.46 197.95,93.44 197.95,89.99L197.95,81.73L195.81,81.73L195.81,89.44L195.83,89.44Z" style="fill:rgb(0,84,48);"/>
    <path d="M208.39,91.51L207.97,93.08L207.57,91.49L204,81.73L201.31,81.73L201.31,95.27L203.43,95.27L203.43,85.34L203.55,85.77L206.97,95.27L208.97,95.27L212.38,85.79L212.51,85.32L212.51,95.27L214.63,95.27L214.63,81.73L211.93,81.73L208.39,91.51Z" style="fill:rgb(0,84,48);"/>
    <path d="M228,85.69L228,85.67C228,83.37 226.6,81.73 223.21,81.73L217.99,81.73L217.99,95.27L220.13,95.27L220.13,89.81L222.62,89.81L226.01,95.27L228.36,95.27L224.82,89.65C226.91,89.17 228.01,87.66 228.01,85.69M220.12,87.95L220.12,83.72L223.37,83.72C224.89,83.72 225.86,84.39 225.86,85.76L225.86,85.78C225.86,87.16 224.91,87.95 223.37,87.95L220.12,87.95Z" style="fill:rgb(0,84,48);"/>
    <path d="M234.07,81.73L229.06,95.27L231.26,95.27L232.58,91.62L238.17,91.62L239.51,95.27L241.71,95.27L236.65,81.73L234.06,81.73L234.07,81.73ZM233.24,89.69L235.33,83.98L235.36,83.83L235.41,83.98L237.51,89.69L233.24,89.69Z" style="fill:rgb(0,84,48);"/>
    <path d="M252.42,81.73L252.42,87.32L245.87,87.32L245.87,81.73L243.74,81.73L243.74,95.27L245.87,95.27L245.87,89.32L252.42,89.32L252.42,95.27L254.55,95.27L254.55,81.73L252.42,81.73Z" style="fill:rgb(0,84,48);"/>
    <path d="M147.73,35.39C150.84,35.39 151.74,30.27 151.74,30.27L151.03,30.27C151.03,30.27 150.38,32.54 148.56,32.54C143.26,32.54 148.13,21.95 148.13,21.94L147.22,21.94C147.22,21.94 141.47,35.39 147.73,35.39" style="fill:rgb(0,84,48);"/>
    <g>
        <path d="M296.72,30.36C296.72,30.36 304.78,22.11 317.51,23.46C298.61,25.8 299.23,40.83 299.23,40.83C299.23,40.83 307.33,30.26 318.43,29.08C298.14,38.3 305.33,52.74 305.33,52.74C305.33,52.74 305.35,42.65 320.93,34.66C305.15,49.6 314.44,62.78 314.44,62.78C314.44,62.78 314.91,49.27 324.34,40.17L323.48,55.6L324.34,57.32L323.48,63.72L324.34,65.89L323.48,72.24L324.34,74.07L321.81,80.94L327.24,85.52L327.24,85.49L327.24,85.52L332.67,80.94L330.14,74.07L331,72.24L330.14,65.89L331,63.72L330.14,57.32L331,55.6L330.14,40.17C339.57,49.27 340.04,62.78 340.04,62.78C340.04,62.78 349.33,49.6 333.55,34.66C349.13,42.65 349.15,52.74 349.15,52.74C349.15,52.74 356.34,38.3 336.05,29.08C347.15,30.26 355.25,40.83 355.25,40.83C355.25,40.83 355.86,25.8 336.97,23.46C349.69,22.11 357.76,30.36 357.76,30.36C357.76,30.36 356.53,15.86 336.14,17.94C335.96,17.96 346.59,14.63 355.72,17.6C348.49,6.69 334.19,12.8 334.19,12.8C340.35,6.99 350.11,7.33 350.11,7.33C350.11,7.33 339.9,0.64 331.09,8.68C329.92,2.12 327.24,0 327.24,0C327.24,0 324.6,1.83 323.38,8.68C314.57,0.63 304.36,7.33 304.36,7.33C304.36,7.33 314.13,6.99 320.28,12.8C320.28,12.8 305.98,6.69 298.75,17.6C307.87,14.64 318.51,17.96 318.33,17.94C297.94,15.86 296.71,30.36 296.71,30.36L296.72,30.36Z" style="fill:rgb(215,164,97);"/>
        <path d="M352.85,107.97C352.48,109.88 351.09,110.76 349.41,110.32C347.14,109.73 344.35,107.24 342.59,105.85C346.9,101.24 346.04,95.99 342.55,95.96L342.53,95.96C341.66,95.96 340.96,96.67 340.96,97.54C340.96,98.41 341.67,99.12 342.54,99.12C342.59,99.12 342.63,99.1 342.68,99.09C342.18,101.18 340.58,102.64 339.81,103.51C338.26,102.17 334.37,98.65 331.31,95.88C331.35,95.85 331.39,95.81 331.39,95.81C345.75,84.01 361.51,73.46 382.1,73.17C360.65,65.5 343.4,77.86 328.68,90.91C328.21,91.32 327.75,91.74 327.29,92.15C327.29,92.15 327.26,92.18 327.25,92.19C327.24,92.18 327.21,92.15 327.21,92.15C312.19,78.67 294.53,65.26 272.4,73.17C292.99,73.46 308.75,84.01 323.11,95.81C323.11,95.81 323.15,95.85 323.19,95.88C320.14,98.65 316.24,102.17 314.69,103.51C313.93,102.65 312.32,101.18 311.82,99.09C311.87,99.09 311.91,99.12 311.96,99.12C312.83,99.12 313.54,98.41 313.54,97.54C313.54,96.67 312.84,95.97 311.97,95.96L311.96,95.96C308.47,95.99 307.6,101.25 311.92,105.85C310.16,107.24 307.37,109.73 305.1,110.32C303.42,110.76 302.02,109.88 301.66,107.97C301,104.01 294.92,104.6 295.65,110.17C296.31,115.3 302.54,117.5 307.81,115.15C309.94,114.2 312.79,111.56 315.21,109.65C315.97,110.52 317.59,111.99 318.08,114.08C318.01,114.07 317.95,114.04 317.87,114.04C317,114.04 316.29,114.75 316.29,115.62C316.29,116.49 317,117.2 317.87,117.2C317.89,117.2 317.9,117.19 317.92,117.19L317.92,117.2C321.36,117.13 322.32,111.92 317.92,107.31C319.75,105.77 324.01,102.14 327.26,99.36C330.51,102.14 334.76,105.78 336.6,107.31C332.2,111.93 333.16,117.13 336.6,117.2L336.6,117.19C336.62,117.19 336.63,117.2 336.65,117.2C337.52,117.2 338.23,116.49 338.23,115.62C338.23,114.75 337.52,114.04 336.65,114.04C336.58,114.04 336.51,114.07 336.44,114.08C336.93,111.98 338.55,110.52 339.31,109.65C341.73,111.56 344.59,114.19 346.71,115.15C351.99,117.49 358.21,115.3 358.87,110.17C359.6,104.6 353.52,104.01 352.86,107.97L352.85,107.97Z" style="fill:rgb(215,164,97);"/>
    </g>
</svg>
