<?xml version="1.0" encoding="UTF-8" standalone="no"?>
<!DOCTYPE svg PUBLIC "-//W3C//DTD SVG 1.1//EN" "http://www.w3.org/Graphics/SVG/1.1/DTD/svg11.dtd">
<svg width="100%" height="100%" viewBox="0 0 160 214" version="1.1" xmlns="http://www.w3.org/2000/svg" xmlns:xlink="http://www.w3.org/1999/xlink" xml:space="preserve" xmlns:serif="http://www.serif.com/" style="fill-rule:evenodd;clip-rule:evenodd;stroke-linejoin:round;stroke-miterlimit:2;">
    <g transform="matrix(1,0,0,1,-637,0)">
        <g id="Artboard2" transform="matrix(0.179052,0,0,0.455501,637,236.095026)">
            <rect x="0" y="-518.32" width="892.87" height="468.32" style="fill:none;"/>
            <g transform="matrix(5.584975,0,0,2.195387,-2267.807142,-682.974041)">
                <path d="M509.26,227.35C501.79,229.85 493.79,231.2 485.48,231.2C485,231.2 484.52,231.2 484.04,231.18L484.04,202.13L491.64,209.73L509.26,227.34L509.26,227.35ZM425.2,118.1C424.39,117.64 423.53,117.2 422.65,116.8C422.39,116.68 422.14,116.57 421.88,116.46C414.66,127.98 410.49,141.61 410.49,156.2C410.49,175.41 417.72,192.93 429.59,206.2C432.7,209.67 436.12,212.85 439.82,215.69L439.82,143.43C439.82,133.03 434.22,123.33 425.2,118.1ZM484.04,143.74L484.04,143.44C484.04,121.81 466.44,104.21 444.81,104.21L431.43,104.21C445.07,90.03 464.25,81.21 485.47,81.21C502.64,81.21 518.46,86.97 531.09,96.69L484.02,143.75L484.04,143.74ZM560.49,156.2C560.49,175.41 553.27,192.93 541.39,206.2C541.14,206.48 540.88,206.76 540.63,207.04L508.49,174.9L555.11,128.28C558.58,136.91 560.49,146.34 560.49,156.21L560.49,156.2Z" style="fill:rgb(0,84,48);fill-rule:nonzero;"/>
            </g>
            <g transform="matrix(5.584975,0,0,2.195387,-2267.807142,-682.974041)">
                <path d="M547.9,206.2C541.95,213.61 534.73,219.93 526.54,224.83L526.52,224.85C523.84,226.46 521.06,227.92 518.19,229.21C508.21,233.7 497.14,236.2 485.49,236.2C483.32,236.2 481.17,236.11 479.05,235.94C471.57,235.34 464.37,233.7 457.61,231.18C454.55,230.05 451.59,228.73 448.73,227.23C447.4,226.54 446.11,225.82 444.83,225.06C436.5,220.12 429.13,213.71 423.09,206.19L422.99,206.19L485.49,281.19L547.99,206.19L547.9,206.19L547.9,206.2Z" style="fill:rgb(0,84,48);fill-rule:nonzero;"/>
            </g>
            <g transform="matrix(5.584975,0,0,2.195387,-2267.807142,-682.974041)">
                <circle cx="454.88" cy="123.05" r="3.75" style="fill:rgb(0,84,48);"/>
            </g>
        </g>
    </g>
</svg>
